<svg id="svg" version="1.1" width="400" height="400" viewBox="0 0 400 400" xmlns="http://www.w3.org/2000/svg" xmlns:xlink="http://www.w3.org/1999/xlink" ><g id="svgg"><path id="path0" d="M221.600 71.825 C 220.830 72.116,219.684 72.365,219.054 72.377 C 218.423 72.390,217.073 72.659,216.054 72.976 C 215.034 73.293,213.210 73.747,212.000 73.985 C 210.790 74.223,208.630 74.674,207.200 74.987 C 205.770 75.300,203.610 75.767,202.400 76.026 C 201.190 76.285,199.300 76.727,198.200 77.009 C 197.100 77.290,195.210 77.723,194.000 77.969 C 192.790 78.216,190.630 78.676,189.200 78.992 C 187.770 79.308,185.340 79.822,183.800 80.135 C 182.260 80.448,180.493 80.905,179.874 81.152 C 179.255 81.398,178.240 81.600,177.620 81.600 C 176.999 81.600,175.616 81.853,174.546 82.163 C 173.476 82.472,171.610 82.932,170.400 83.185 C 165.720 84.162,162.938 84.777,161.400 85.173 C 160.520 85.399,158.360 85.872,156.600 86.223 C 154.840 86.573,152.680 87.044,151.800 87.269 C 150.920 87.493,149.011 87.903,147.557 88.180 C 146.104 88.456,144.720 88.802,144.482 88.949 C 144.245 89.096,142.644 89.484,140.925 89.813 C 139.206 90.141,136.630 90.670,135.200 90.988 C 133.770 91.306,131.321 91.817,129.757 92.124 C 128.194 92.431,126.720 92.802,126.482 92.949 C 126.245 93.096,124.644 93.484,122.925 93.813 C 121.206 94.141,118.630 94.670,117.200 94.988 C 115.770 95.306,113.321 95.817,111.757 96.124 C 110.194 96.431,108.720 96.802,108.482 96.949 C 108.245 97.096,106.644 97.484,104.925 97.813 C 103.206 98.141,100.630 98.667,99.200 98.983 C 97.770 99.298,95.610 99.762,94.400 100.014 C 93.190 100.267,91.300 100.714,90.200 101.009 C 89.100 101.303,87.210 101.741,86.000 101.981 C 84.790 102.221,82.630 102.674,81.200 102.987 C 79.770 103.300,77.610 103.759,76.400 104.008 C 73.219 104.663,71.442 105.250,71.106 105.756 C 70.721 106.338,70.722 294.459,71.107 295.064 C 71.393 295.513,72.593 295.819,78.682 296.996 C 80.267 297.302,81.887 297.718,82.282 297.921 C 82.677 298.124,83.931 298.394,85.069 298.522 C 86.208 298.650,87.468 298.928,87.869 299.139 C 88.271 299.350,89.680 299.711,91.000 299.942 C 95.277 300.691,98.968 301.462,100.400 301.905 C 101.170 302.144,102.790 302.539,104.000 302.784 C 111.501 304.301,115.191 305.109,117.800 305.804 C 118.900 306.096,120.593 306.447,121.562 306.583 C 122.531 306.718,123.521 306.958,123.762 307.115 C 124.003 307.272,125.370 307.617,126.800 307.882 C 132.819 308.999,135.465 309.567,136.526 309.971 C 137.145 310.207,138.198 310.400,138.866 310.400 C 139.533 310.400,140.646 310.647,141.340 310.949 C 142.033 311.251,143.680 311.685,145.000 311.915 C 146.320 312.145,149.110 312.724,151.200 313.203 C 153.290 313.681,155.935 314.220,157.077 314.399 C 158.220 314.578,159.390 314.877,159.677 315.062 C 159.965 315.248,161.370 315.611,162.800 315.868 C 164.230 316.126,167.110 316.727,169.200 317.205 C 171.290 317.682,173.935 318.220,175.077 318.399 C 176.220 318.578,177.390 318.877,177.677 319.062 C 177.965 319.248,179.370 319.611,180.800 319.870 C 182.230 320.128,185.020 320.720,187.000 321.186 C 188.980 321.652,191.617 322.184,192.860 322.368 C 194.103 322.553,195.344 322.842,195.617 323.011 C 195.891 323.180,197.304 323.543,198.757 323.819 C 200.211 324.095,203.020 324.704,205.000 325.172 C 206.980 325.641,209.652 326.198,210.937 326.412 C 212.223 326.625,213.475 326.923,213.719 327.073 C 213.963 327.224,215.341 327.574,216.781 327.850 C 218.222 328.126,220.570 328.594,222.000 328.888 C 223.430 329.183,224.915 329.360,225.300 329.283 C 225.965 329.148,226.000 322.679,226.000 200.171 L 226.000 71.200 224.500 71.248 C 223.675 71.274,222.370 71.534,221.600 71.825 M246.500 127.962 C 245.126 128.334,243.785 128.855,243.520 129.120 C 243.256 129.384,242.902 129.600,242.733 129.600 C 242.307 129.600,237.890 132.658,236.960 133.595 C 236.542 134.017,235.975 134.633,235.700 134.964 C 235.323 135.418,235.200 138.714,235.200 148.366 L 235.200 161.166 236.700 162.683 C 238.945 164.953,240.595 166.281,241.548 166.583 C 242.016 166.732,242.400 167.007,242.400 167.195 C 242.400 167.383,242.985 167.662,243.700 167.814 C 244.415 167.967,245.205 168.257,245.456 168.459 C 245.707 168.660,247.386 168.993,249.188 169.199 C 253.831 169.728,257.642 169.193,261.600 167.455 C 264.213 166.307,267.505 163.451,269.269 160.800 C 270.221 159.370,271.103 158.110,271.230 158.000 C 273.027 156.434,273.869 145.025,272.422 141.848 C 271.970 140.856,271.600 139.764,271.600 139.422 C 271.600 139.080,271.438 138.800,271.239 138.800 C 271.041 138.800,270.699 138.285,270.480 137.657 C 269.920 136.050,265.355 131.449,263.193 130.313 C 262.200 129.790,261.120 129.191,260.793 128.981 C 258.372 127.426,250.545 126.867,246.500 127.962 M305.800 140.445 C 302.584 140.726,300.182 141.551,297.700 143.226 C 296.743 143.871,295.863 144.400,295.745 144.400 C 295.136 144.400,291.216 149.021,290.256 150.870 C 289.647 152.041,288.992 153.270,288.800 153.600 C 285.960 158.471,287.386 168.313,291.800 174.299 C 292.504 175.253,295.776 178.400,296.064 178.400 C 296.218 178.400,296.584 178.625,296.879 178.900 C 302.308 183.968,314.746 183.535,321.595 178.040 C 324.297 175.873,327.600 171.944,327.600 170.898 C 327.600 170.728,327.927 169.961,328.327 169.194 C 330.700 164.647,330.142 155.933,327.174 151.200 C 326.967 150.870,326.623 150.196,326.410 149.702 C 326.196 149.209,325.072 147.854,323.911 146.692 C 318.754 141.529,313.626 139.761,305.800 140.445 M183.106 158.679 L 183.213 169.559 181.706 169.987 C 180.878 170.222,174.440 170.606,167.400 170.839 C 160.360 171.072,154.463 171.396,154.295 171.557 C 154.127 171.719,153.947 190.508,153.895 213.311 C 153.785 261.430,154.384 256.295,148.950 255.650 C 146.998 255.418,142.197 255.105,138.282 254.954 C 132.032 254.712,131.117 254.592,130.782 253.966 C 130.547 253.527,130.400 237.712,130.400 212.826 L 130.400 172.400 128.500 172.400 C 127.455 172.400,121.943 172.674,116.251 173.008 C 108.474 173.465,105.764 173.502,105.351 173.159 C 104.578 172.518,104.538 153.115,105.308 152.476 C 105.587 152.244,109.412 151.862,113.808 151.626 C 118.204 151.390,123.240 151.031,125.000 150.827 C 126.760 150.624,129.820 150.446,131.800 150.433 C 133.780 150.419,138.910 150.143,143.200 149.819 C 151.052 149.226,161.654 148.503,169.800 148.005 C 172.220 147.857,176.180 147.750,178.600 147.768 L 183.000 147.800 183.106 158.679 M235.443 183.833 C 234.998 184.992,235.166 276.789,235.614 277.626 C 235.842 278.052,236.427 278.401,236.914 278.402 C 237.401 278.404,238.296 278.664,238.903 278.980 C 241.825 280.504,257.338 280.503,260.660 278.978 C 261.354 278.660,262.220 278.400,262.585 278.400 C 265.430 278.400,275.584 270.675,275.602 268.497 C 275.604 268.334,275.895 267.660,276.250 267.000 C 277.888 263.953,277.984 261.472,277.992 222.133 C 277.996 201.416,277.891 184.181,277.757 183.833 C 277.387 182.867,235.813 182.867,235.443 183.833 M287.200 228.392 L 287.200 260.385 288.219 260.641 C 290.938 261.323,308.134 260.071,310.908 258.988 C 311.738 258.665,312.772 258.400,313.207 258.400 C 314.997 258.400,322.070 254.442,324.217 252.239 C 329.789 246.523,329.982 245.368,329.992 217.700 L 330.000 196.400 308.600 196.400 L 287.200 196.400 287.200 228.392 " stroke="none" fill="#fbfbfb" fill-rule="evenodd"></path><path id="path1" d="M0.000 200.000 L 0.000 400.000 200.000 400.000 L 400.000 400.000 400.000 200.000 L 400.000 0.000 200.000 0.000 L 0.000 0.000 0.000 200.000 M223.400 69.600 C 223.553 69.847,222.910 69.989,221.724 69.972 C 220.281 69.951,220.000 69.858,220.600 69.600 C 221.712 69.122,223.105 69.122,223.400 69.600 M226.768 70.700 C 227.149 71.355,227.176 71.351,227.188 70.651 C 227.198 70.031,227.303 69.988,227.800 70.400 C 228.331 70.841,228.400 85.775,228.400 200.400 C 228.400 315.025,228.331 329.959,227.800 330.400 C 227.291 330.822,227.194 330.723,227.160 329.749 C 227.121 328.613,227.117 328.612,226.838 329.600 C 226.601 330.440,226.336 330.588,225.178 330.527 C 223.101 330.417,218.069 329.352,217.500 328.902 C 217.225 328.685,215.854 328.408,214.454 328.287 C 213.053 328.166,211.712 327.872,211.474 327.634 C 210.826 326.986,210.000 327.110,210.000 327.856 C 210.000 328.414,209.663 328.477,207.743 328.279 C 204.489 327.943,204.021 327.213,207.020 327.150 L 209.400 327.100 207.400 326.793 C 206.300 326.624,204.893 326.286,204.274 326.043 C 203.655 325.799,202.575 325.594,201.874 325.586 C 201.173 325.578,200.150 325.314,199.600 325.000 C 198.480 324.360,194.987 324.151,195.989 324.785 C 196.908 325.366,195.375 325.809,194.278 325.278 L 193.400 324.854 194.300 324.827 C 195.558 324.789,195.421 324.293,193.976 323.654 C 192.888 323.172,192.695 323.190,192.236 323.819 C 191.811 324.399,191.350 324.482,189.657 324.281 C 186.147 323.866,185.778 323.235,189.000 323.156 L 191.800 323.087 189.800 322.770 C 186.668 322.272,183.562 321.589,181.600 320.967 C 180.610 320.653,179.260 320.396,178.600 320.396 C 177.940 320.395,176.884 320.126,176.254 319.798 C 174.930 319.107,173.755 319.026,173.400 319.600 C 173.078 320.121,169.722 320.121,169.400 319.600 C 169.250 319.357,169.907 319.180,171.076 319.150 L 173.000 319.100 171.400 318.809 C 170.520 318.649,169.293 318.311,168.674 318.059 C 168.055 317.807,166.924 317.600,166.161 317.600 C 165.398 317.600,164.128 317.330,163.338 317.000 C 162.549 316.670,161.339 316.421,160.651 316.446 C 159.963 316.472,159.715 316.575,160.100 316.676 C 160.485 316.776,160.800 317.025,160.800 317.229 C 160.800 317.717,158.767 317.696,158.000 317.200 C 157.515 316.886,157.572 316.811,158.300 316.806 C 160.879 316.789,158.053 315.450,154.464 314.989 C 153.289 314.838,151.849 314.465,151.264 314.160 C 150.679 313.855,149.300 313.597,148.200 313.588 C 147.100 313.579,145.750 313.314,145.200 313.000 C 144.650 312.686,143.750 312.443,143.200 312.461 C 142.527 312.482,142.430 312.553,142.905 312.677 C 143.293 312.778,143.507 313.027,143.381 313.230 C 143.081 313.716,140.766 313.695,140.000 313.200 C 139.515 312.886,139.572 312.811,140.300 312.806 C 140.795 312.803,141.200 312.620,141.200 312.400 C 141.200 312.180,140.851 312.000,140.424 312.000 C 139.997 312.000,139.549 311.841,139.429 311.647 C 139.309 311.452,138.205 311.168,136.977 311.014 C 135.748 310.861,134.131 310.480,133.384 310.168 C 132.637 309.855,131.154 309.600,130.089 309.600 C 129.006 309.600,127.811 309.341,127.376 309.013 C 126.949 308.690,126.150 308.434,125.600 308.444 C 125.050 308.455,124.825 308.554,125.100 308.665 C 125.375 308.776,125.600 309.032,125.600 309.233 C 125.600 309.721,122.364 309.694,121.600 309.200 C 121.132 308.898,121.243 308.811,122.100 308.806 C 123.521 308.798,123.521 308.172,122.100 307.824 C 118.272 306.887,115.498 306.283,113.400 305.928 C 112.080 305.706,110.409 305.270,109.686 304.962 C 108.007 304.244,107.569 304.253,107.855 305.000 C 108.041 305.485,107.712 305.595,106.143 305.572 C 103.800 305.538,101.797 304.874,103.900 304.828 C 105.748 304.788,105.509 304.266,103.349 303.628 C 101.691 303.139,101.460 303.150,101.129 303.741 C 100.686 304.533,99.430 304.561,97.800 303.814 L 96.600 303.265 98.800 303.182 L 101.000 303.100 99.400 302.764 C 98.520 302.580,96.478 302.172,94.863 301.857 C 93.247 301.543,91.726 301.086,91.483 300.843 C 90.820 300.180,90.081 300.309,90.144 301.077 C 90.191 301.644,89.875 301.736,88.200 301.641 C 85.953 301.514,84.229 300.833,86.100 300.812 C 87.425 300.798,87.558 300.178,86.300 299.879 C 85.805 299.761,84.995 299.539,84.500 299.386 C 83.823 299.176,83.600 299.267,83.600 299.753 C 83.600 300.570,81.522 300.603,79.800 299.814 C 78.613 299.271,78.626 299.264,81.000 299.179 L 83.400 299.093 81.600 298.764 C 76.013 297.744,73.879 297.239,73.483 296.843 C 73.239 296.599,72.452 296.400,71.734 296.400 C 69.488 296.400,69.600 301.452,69.600 200.315 C 69.600 97.529,69.452 104.316,71.704 103.882 C 72.468 103.734,72.438 103.701,71.500 103.654 C 70.235 103.592,70.036 102.969,71.166 102.611 C 72.089 102.318,74.000 102.745,74.000 103.243 C 74.000 103.792,75.381 103.667,76.654 103.002 C 77.284 102.674,78.289 102.404,78.886 102.402 C 79.483 102.401,80.743 102.142,81.686 101.828 C 82.629 101.513,83.940 101.180,84.600 101.088 C 85.319 100.987,84.918 100.893,83.600 100.854 C 81.165 100.781,81.429 100.234,84.119 99.780 C 85.344 99.573,85.764 99.670,86.203 100.260 C 86.667 100.886,86.877 100.923,87.570 100.500 C 88.021 100.225,88.977 99.973,89.695 99.940 C 90.804 99.889,90.730 99.840,89.200 99.617 L 87.400 99.355 88.526 98.877 C 90.196 98.169,92.686 98.268,93.129 99.059 C 93.471 99.670,93.565 99.670,94.438 99.059 C 94.955 98.696,95.893 98.400,96.523 98.400 C 97.670 98.400,101.354 97.584,104.875 96.550 C 105.906 96.248,107.256 95.972,107.875 95.937 C 108.511 95.902,108.130 95.763,107.000 95.617 C 105.021 95.363,105.012 95.355,106.126 94.880 C 107.776 94.177,110.400 94.250,110.400 95.000 C 110.400 95.755,110.810 95.756,112.254 95.002 C 112.884 94.674,114.161 94.404,115.092 94.402 C 116.022 94.401,117.462 94.138,118.292 93.818 C 119.121 93.497,120.790 93.038,122.000 92.796 C 123.210 92.554,124.830 92.207,125.600 92.024 L 127.000 91.692 125.220 91.646 C 122.909 91.586,123.563 90.796,126.165 90.503 C 127.679 90.332,128.000 90.410,128.000 90.948 C 128.000 91.760,128.766 91.778,130.254 91.002 C 130.884 90.674,132.267 90.404,133.326 90.402 C 134.386 90.401,135.646 90.186,136.126 89.925 C 136.607 89.663,138.170 89.202,139.600 88.900 C 141.030 88.598,142.830 88.202,143.600 88.021 L 145.000 87.692 143.220 87.646 C 141.096 87.591,141.448 86.904,143.795 86.523 C 144.988 86.330,145.433 86.431,145.841 86.989 C 146.331 87.659,146.460 87.663,147.989 87.051 C 148.884 86.693,150.341 86.400,151.228 86.400 C 152.114 86.400,153.337 86.143,153.945 85.828 C 154.553 85.514,156.168 85.130,157.534 84.976 C 158.900 84.821,160.114 84.538,160.233 84.347 C 160.351 84.156,160.932 83.974,161.524 83.943 C 162.318 83.901,162.181 83.816,161.000 83.617 L 159.400 83.348 160.526 82.874 C 162.109 82.208,163.600 82.269,163.600 83.000 C 163.600 83.745,164.157 83.748,166.200 83.012 C 167.080 82.695,168.487 82.427,169.326 82.418 C 170.166 82.408,171.246 82.185,171.726 81.922 C 172.207 81.659,173.320 81.321,174.200 81.172 C 175.785 80.903,175.780 80.900,173.676 80.850 C 172.374 80.819,171.648 80.645,171.800 80.400 C 172.133 79.861,175.448 79.890,176.476 80.441 C 177.058 80.752,177.549 80.758,178.150 80.461 C 178.618 80.230,179.360 79.963,179.800 79.867 C 180.240 79.771,179.889 79.672,179.020 79.646 C 177.094 79.590,177.545 78.889,179.735 78.533 C 180.920 78.341,181.200 78.420,181.200 78.948 C 181.200 79.668,183.368 79.899,183.786 79.223 C 183.914 79.016,184.869 78.741,185.909 78.612 C 186.949 78.484,188.430 78.167,189.200 77.908 C 189.970 77.649,191.500 77.319,192.600 77.175 C 194.569 76.917,194.556 76.912,191.800 76.850 C 188.588 76.779,188.865 76.199,192.317 75.768 C 194.107 75.544,194.525 75.618,194.977 76.236 C 195.386 76.795,195.643 76.864,196.057 76.523 C 196.356 76.278,197.050 75.994,197.600 75.893 C 198.301 75.764,198.127 75.693,197.020 75.654 C 195.321 75.596,195.437 75.045,197.242 74.599 C 197.938 74.428,198.495 74.552,198.914 74.971 C 199.691 75.748,200.381 75.758,202.746 75.028 C 205.267 74.250,208.235 73.538,210.400 73.194 L 212.200 72.907 209.876 72.853 C 207.084 72.789,207.195 72.186,210.071 71.790 C 211.825 71.549,212.224 71.618,212.681 72.243 C 213.132 72.859,213.348 72.900,214.004 72.490 C 214.436 72.221,215.197 71.974,215.695 71.943 C 216.193 71.912,215.880 71.765,215.000 71.617 C 213.404 71.348,213.402 71.347,214.457 70.900 C 215.562 70.432,217.200 70.639,217.200 71.247 C 217.200 71.747,219.753 71.687,220.265 71.175 C 220.667 70.773,223.547 70.150,225.480 70.047 C 225.964 70.021,226.544 70.315,226.768 70.700 M204.872 73.927 C 202.857 74.225,201.658 73.803,203.200 73.339 C 204.200 73.038,204.762 73.044,205.166 73.359 C 205.632 73.722,205.580 73.822,204.872 73.927 M187.908 77.525 C 188.018 77.855,187.364 78.000,185.767 78.000 C 183.191 78.000,183.097 77.794,185.424 77.252 C 187.255 76.825,187.691 76.873,187.908 77.525 M170.302 81.500 C 170.422 81.864,169.788 82.000,167.967 82.000 C 165.328 82.000,165.090 81.718,167.280 81.187 C 169.010 80.768,170.098 80.881,170.302 81.500 M157.000 84.400 C 157.152 84.646,156.506 84.798,155.324 84.794 C 153.934 84.789,153.567 84.680,154.000 84.400 C 154.787 83.891,156.686 83.891,157.000 84.400 M152.800 85.400 C 152.800 85.878,152.252 85.991,150.100 85.958 L 147.400 85.916 149.000 85.389 C 151.233 84.653,152.800 84.657,152.800 85.400 M139.200 88.400 C 139.200 88.620,138.345 88.797,137.300 88.794 C 135.926 88.789,135.566 88.680,136.000 88.400 C 136.791 87.889,139.200 87.889,139.200 88.400 M134.600 89.600 C 134.756 89.852,133.839 89.998,132.124 89.994 C 130.217 89.990,129.580 89.871,130.000 89.600 C 130.791 89.089,134.284 89.089,134.600 89.600 M121.108 92.325 C 121.215 92.646,120.671 92.800,119.433 92.800 C 117.273 92.800,117.106 92.565,118.900 92.049 C 120.418 91.613,120.891 91.672,121.108 92.325 M115.000 93.600 C 115.150 93.843,114.572 93.998,113.524 93.994 C 112.263 93.989,111.961 93.884,112.400 93.600 C 113.185 93.093,114.686 93.093,115.000 93.600 M103.600 96.200 C 103.600 96.656,103.102 96.800,101.520 96.800 C 98.645 96.800,99.727 95.901,102.900 95.654 C 103.285 95.625,103.600 95.870,103.600 96.200 M97.000 97.600 C 97.147 97.839,96.663 98.000,95.800 98.000 C 94.937 98.000,94.453 97.839,94.600 97.600 C 94.736 97.380,95.276 97.200,95.800 97.200 C 96.324 97.200,96.864 97.380,97.000 97.600 M79.200 101.600 C 79.200 101.820,78.435 101.997,77.500 101.994 C 76.255 101.989,75.961 101.884,76.400 101.600 C 77.190 101.090,79.200 101.090,79.200 101.600 M68.772 200.300 C 68.756 253.713,68.593 295.049,68.400 294.600 C 68.016 293.706,67.860 106.830,68.243 105.833 C 68.376 105.485,68.556 105.200,68.643 105.200 C 68.729 105.200,68.787 147.995,68.772 200.300 M248.800 125.600 C 249.231 125.879,248.837 125.988,247.400 125.988 C 245.963 125.988,245.569 125.879,246.000 125.600 C 246.330 125.387,246.960 125.212,247.400 125.212 C 247.840 125.212,248.470 125.387,248.800 125.600 M258.600 125.600 C 258.752 125.846,258.106 125.998,256.924 125.994 C 255.534 125.989,255.167 125.880,255.600 125.600 C 256.387 125.091,258.286 125.091,258.600 125.600 M244.800 127.000 C 244.800 127.747,245.177 127.743,246.176 126.987 C 246.768 126.540,248.206 126.400,252.200 126.400 C 256.194 126.400,257.632 126.540,258.224 126.987 C 259.232 127.750,260.000 127.755,260.000 127.000 C 260.000 126.670,260.338 126.400,260.751 126.400 C 261.164 126.400,261.726 126.670,262.000 127.000 C 262.423 127.509,262.324 127.602,261.349 127.614 C 260.316 127.627,260.402 127.723,262.200 128.569 C 263.300 129.086,264.704 129.980,265.321 130.555 C 265.937 131.130,266.600 131.600,266.794 131.600 C 266.988 131.600,268.000 132.686,269.042 134.012 C 270.213 135.503,271.045 136.251,271.219 135.970 C 271.426 135.635,271.580 135.644,271.801 136.002 C 271.967 136.270,271.870 136.633,271.586 136.808 C 271.179 137.060,271.210 137.267,271.735 137.792 C 272.101 138.158,272.400 138.768,272.400 139.149 C 272.400 139.529,272.621 140.061,272.890 140.330 C 274.587 142.027,274.692 153.755,273.033 156.362 C 271.763 158.360,270.160 161.897,270.297 162.401 C 270.408 162.807,270.354 162.850,270.128 162.534 C 269.765 162.027,268.684 162.585,268.365 163.444 C 268.136 164.060,264.443 167.200,263.947 167.200 C 263.272 167.200,262.349 168.321,262.797 168.598 C 263.490 169.026,263.238 169.600,262.357 169.600 C 261.772 169.600,261.585 169.416,261.745 169.000 C 262.031 168.253,261.274 168.219,260.431 168.942 C 258.044 170.990,246.356 170.990,243.969 168.942 C 243.621 168.644,243.139 168.400,242.897 168.400 C 242.256 168.400,238.077 165.500,236.100 163.684 L 234.400 162.122 234.400 148.508 L 234.400 134.894 236.015 133.279 C 237.380 131.914,237.519 131.633,236.915 131.458 C 236.471 131.330,236.572 131.280,237.182 131.326 C 237.722 131.367,238.537 131.066,238.994 130.658 C 239.450 130.249,240.808 129.394,242.012 128.758 C 243.560 127.939,243.937 127.600,243.300 127.600 C 242.335 127.600,242.077 126.997,242.900 126.665 C 243.908 126.258,244.800 126.415,244.800 127.000 M264.400 128.443 C 264.400 128.639,264.130 128.800,263.800 128.800 C 263.470 128.800,263.200 128.536,263.200 128.213 C 263.200 127.855,263.435 127.715,263.800 127.855 C 264.130 127.982,264.400 128.246,264.400 128.443 M241.200 128.400 C 241.200 128.620,240.829 128.800,240.376 128.800 C 239.923 128.800,239.664 128.620,239.800 128.400 C 239.936 128.180,240.307 128.000,240.624 128.000 C 240.941 128.000,241.200 128.180,241.200 128.400 M268.145 131.000 C 268.285 131.365,268.145 131.600,267.787 131.600 C 267.464 131.600,267.200 131.330,267.200 131.000 C 267.200 130.670,267.361 130.400,267.557 130.400 C 267.754 130.400,268.018 130.670,268.145 131.000 M269.600 132.400 C 269.600 132.620,269.330 132.800,269.000 132.800 C 268.670 132.800,268.400 132.620,268.400 132.400 C 268.400 132.180,268.670 132.000,269.000 132.000 C 269.330 132.000,269.600 132.180,269.600 132.400 M273.594 138.900 C 273.597 139.285,273.420 139.600,273.200 139.600 C 272.980 139.600,272.803 139.015,272.806 138.300 C 272.811 137.314,272.906 137.145,273.200 137.600 C 273.413 137.930,273.591 138.515,273.594 138.900 M309.700 137.882 C 309.205 137.978,308.395 137.978,307.900 137.882 C 307.405 137.787,307.810 137.709,308.800 137.709 C 309.790 137.709,310.195 137.787,309.700 137.882 M302.839 139.048 C 303.276 139.574,303.829 139.645,305.788 139.428 C 308.789 139.097,308.552 139.097,311.259 139.427 C 312.994 139.640,313.723 139.560,314.405 139.082 C 314.893 138.740,315.541 138.556,315.846 138.673 C 316.713 139.006,316.495 139.598,315.500 139.615 C 314.851 139.625,315.103 139.853,316.400 140.429 C 317.390 140.869,318.470 141.403,318.800 141.616 C 319.130 141.828,319.802 142.176,320.293 142.388 C 320.784 142.601,322.026 143.591,323.051 144.587 C 324.077 145.584,325.070 146.400,325.258 146.400 C 325.446 146.400,325.600 146.661,325.600 146.980 C 325.600 147.299,325.853 147.704,326.161 147.880 C 326.470 148.056,327.153 149.013,327.680 150.007 C 328.206 151.000,328.808 152.080,329.016 152.407 C 331.651 156.534,331.357 166.399,328.456 171.200 C 327.991 171.970,327.441 172.982,327.235 173.448 C 326.670 174.724,321.627 179.623,320.227 180.257 C 319.552 180.562,318.730 180.981,318.400 181.187 C 315.880 182.762,314.590 183.000,308.569 183.000 C 302.462 183.000,301.857 182.885,298.800 181.140 C 298.470 180.952,297.802 180.626,297.316 180.415 C 296.830 180.204,296.097 179.710,295.687 179.316 C 295.278 178.922,294.272 178.060,293.453 177.400 C 291.961 176.198,290.043 173.593,288.450 170.606 C 287.620 169.050,287.600 169.039,287.600 170.155 C 287.600 171.126,287.510 171.223,287.000 170.800 C 286.223 170.155,286.231 168.934,287.015 168.495 C 287.569 168.186,287.569 168.032,287.018 166.975 C 286.184 165.375,286.170 157.051,287.000 155.600 C 287.736 154.312,287.736 154.000,287.000 154.000 C 286.670 154.000,286.400 153.662,286.400 153.249 C 286.400 152.027,287.588 151.266,287.646 152.451 C 287.680 153.129,287.745 153.200,287.876 152.700 C 287.976 152.315,288.208 152.000,288.390 152.000 C 288.573 152.000,288.917 151.505,289.155 150.900 C 290.021 148.701,295.062 143.199,296.978 142.362 C 297.430 142.164,298.070 141.828,298.400 141.616 C 298.730 141.403,299.810 140.869,300.800 140.429 C 302.182 139.815,302.380 139.626,301.651 139.615 C 300.853 139.602,300.781 139.504,301.200 139.000 C 301.835 138.234,302.173 138.244,302.839 139.048 M299.600 140.200 C 299.600 140.591,299.217 140.796,298.500 140.787 C 297.446 140.775,297.433 140.750,298.176 140.187 C 299.166 139.439,299.600 139.443,299.600 140.200 M319.200 140.443 C 319.200 140.639,318.840 140.800,318.400 140.800 C 317.620 140.800,317.358 140.376,317.839 139.894 C 318.160 139.574,319.200 139.993,319.200 140.443 M274.800 141.400 C 274.800 141.924,274.620 142.464,274.400 142.600 C 274.161 142.747,274.000 142.263,274.000 141.400 C 274.000 140.537,274.161 140.053,274.400 140.200 C 274.620 140.336,274.800 140.876,274.800 141.400 M324.400 144.200 C 324.816 144.701,324.758 144.800,324.049 144.800 C 323.561 144.800,323.200 144.545,323.200 144.200 C 323.200 143.870,323.358 143.600,323.551 143.600 C 323.744 143.600,324.126 143.870,324.400 144.200 M275.988 148.400 C 275.988 149.390,275.813 150.470,275.600 150.800 C 275.331 151.217,275.212 150.483,275.212 148.400 C 275.212 146.317,275.331 145.583,275.600 146.000 C 275.813 146.330,275.988 147.410,275.988 148.400 M328.308 148.325 C 328.395 148.586,328.182 148.800,327.833 148.800 C 327.485 148.800,327.200 148.515,327.200 148.167 C 327.200 147.460,328.061 147.583,328.308 148.325 M172.400 149.020 C 170.310 149.301,165.900 149.555,162.600 149.583 C 159.300 149.612,155.250 149.819,153.600 150.044 C 151.950 150.268,148.080 150.590,145.000 150.759 L 139.400 151.066 146.200 151.174 C 151.344 151.256,152.659 151.374,151.600 151.660 C 149.431 152.245,139.733 152.208,139.014 151.612 C 138.427 151.124,134.054 151.202,126.200 151.838 C 122.195 152.162,121.957 152.791,125.820 152.840 C 130.577 152.900,127.946 153.511,122.724 153.560 C 118.674 153.598,116.472 153.039,119.292 152.690 C 120.012 152.601,119.070 152.515,117.200 152.498 C 115.330 152.482,112.000 152.678,109.800 152.934 L 105.800 153.400 105.800 162.600 L 105.800 171.800 111.900 171.816 L 118.001 171.832 112.000 171.706 L 106.000 171.579 106.000 162.790 L 106.000 154.000 108.500 154.060 C 109.875 154.093,110.460 154.190,109.800 154.276 C 109.140 154.362,108.101 154.629,107.491 154.868 L 106.383 155.304 106.491 162.752 L 106.600 170.200 114.276 170.461 C 118.497 170.605,122.187 170.875,122.476 171.061 C 122.764 171.248,124.795 171.490,126.990 171.600 C 132.570 171.880,131.998 167.074,131.983 213.565 C 131.974 241.665,132.097 253.458,132.404 253.765 C 132.694 254.055,136.165 254.200,142.826 254.200 L 152.813 254.200 152.803 213.336 C 152.797 189.701,152.946 172.067,153.157 171.513 L 153.521 170.555 166.261 169.860 C 173.267 169.478,179.810 169.114,180.800 169.052 C 181.790 168.990,178.640 168.884,173.800 168.816 C 165.240 168.696,164.217 168.123,172.400 168.032 C 174.270 168.011,177.015 167.880,178.500 167.739 L 181.200 167.484 181.200 158.791 C 181.200 151.317,181.110 150.024,180.561 149.568 C 179.981 149.086,179.990 149.011,180.661 148.747 C 181.838 148.284,176.576 148.458,172.400 149.020 M182.173 158.600 C 182.173 163.880,182.230 165.985,182.299 163.277 C 182.368 160.569,182.368 156.249,182.299 153.677 C 182.229 151.105,182.172 153.320,182.173 158.600 M172.400 150.405 C 165.742 151.172,156.583 151.303,156.032 150.639 C 155.549 150.056,156.363 150.005,165.251 150.053 C 171.871 150.088,174.165 150.201,172.400 150.405 M330.800 153.224 C 330.800 153.651,330.620 154.000,330.400 154.000 C 330.180 154.000,330.000 153.539,330.000 152.976 C 330.000 152.396,330.173 152.060,330.400 152.200 C 330.620 152.336,330.800 152.797,330.800 153.224 M274.800 155.200 C 274.800 155.614,274.620 156.064,274.400 156.200 C 274.166 156.345,274.000 155.930,274.000 155.200 C 274.000 154.470,274.166 154.055,274.400 154.200 C 274.620 154.336,274.800 154.786,274.800 155.200 M285.994 161.500 C 285.990 165.715,285.859 167.601,285.600 167.200 C 284.904 166.123,285.125 155.200,285.843 155.200 C 285.929 155.200,285.997 158.035,285.994 161.500 M332.200 161.400 C 332.200 164.835,332.046 166.514,331.700 166.860 C 331.300 167.260,331.200 166.168,331.200 161.400 C 331.200 156.632,331.300 155.540,331.700 155.940 C 332.046 156.286,332.200 157.965,332.200 161.400 M273.600 158.176 C 273.600 158.493,273.432 158.856,273.228 158.983 C 272.752 159.277,272.274 158.528,272.600 158.000 C 272.968 157.405,273.600 157.516,273.600 158.176 M272.000 161.000 C 272.000 161.330,271.820 161.600,271.600 161.600 C 271.380 161.600,271.200 161.330,271.200 161.000 C 271.200 160.670,271.380 160.400,271.600 160.400 C 271.820 160.400,272.000 160.670,272.000 161.000 M235.600 163.800 C 235.600 164.130,235.870 164.400,236.200 164.400 C 236.530 164.400,236.800 164.670,236.800 165.000 C 236.800 165.847,236.342 165.736,235.300 164.637 C 234.245 163.524,234.178 163.200,235.000 163.200 C 235.330 163.200,235.600 163.470,235.600 163.800 M269.745 163.800 C 269.618 164.130,269.354 164.400,269.157 164.400 C 268.961 164.400,268.800 164.130,268.800 163.800 C 268.800 163.470,269.064 163.200,269.387 163.200 C 269.745 163.200,269.885 163.435,269.745 163.800 M265.508 167.675 C 265.261 168.417,264.400 168.540,264.400 167.833 C 264.400 167.485,264.685 167.200,265.033 167.200 C 265.382 167.200,265.595 167.414,265.508 167.675 M242.853 169.307 C 242.376 169.784,241.051 169.365,241.375 168.840 C 241.499 168.639,241.973 168.572,242.427 168.691 C 242.977 168.835,243.119 169.041,242.853 169.307 M330.800 169.376 C 330.800 169.913,330.620 170.464,330.400 170.600 C 330.167 170.744,330.000 170.337,330.000 169.624 C 330.000 168.951,330.180 168.400,330.400 168.400 C 330.620 168.400,330.800 168.839,330.800 169.376 M245.400 170.400 C 245.264 170.620,244.893 170.800,244.576 170.800 C 244.259 170.800,244.000 170.620,244.000 170.400 C 244.000 170.180,244.371 170.000,244.824 170.000 C 245.277 170.000,245.536 170.180,245.400 170.400 M260.080 170.480 C 259.707 170.853,259.493 170.853,259.120 170.480 C 258.747 170.107,258.853 170.000,259.600 170.000 C 260.347 170.000,260.453 170.107,260.080 170.480 M256.400 171.600 C 256.070 171.813,254.270 171.988,252.400 171.988 C 250.530 171.988,248.730 171.813,248.400 171.600 C 247.994 171.337,249.284 171.212,252.400 171.212 C 255.516 171.212,256.806 171.337,256.400 171.600 M133.299 221.700 C 133.383 247.671,133.310 252.800,132.857 252.800 C 132.527 252.800,132.409 252.553,132.557 252.167 C 132.691 251.819,132.842 233.684,132.892 211.867 C 132.943 190.050,133.032 176.340,133.091 181.400 C 133.150 186.460,133.243 204.595,133.299 221.700 M328.400 174.151 C 328.400 174.234,328.130 174.526,327.800 174.800 C 327.309 175.208,327.200 175.180,327.200 174.649 C 327.200 174.292,327.470 174.000,327.800 174.000 C 328.130 174.000,328.400 174.068,328.400 174.151 M324.308 178.475 C 324.061 179.217,323.200 179.340,323.200 178.633 C 323.200 178.285,323.485 178.000,323.833 178.000 C 324.182 178.000,324.395 178.214,324.308 178.475 M296.983 180.772 C 297.279 181.251,296.526 181.725,295.993 181.396 C 295.546 181.119,295.840 180.400,296.400 180.400 C 296.594 180.400,296.856 180.568,296.983 180.772 M321.242 181.318 C 320.728 181.832,320.207 181.435,320.588 180.820 C 320.735 180.582,321.039 180.500,321.262 180.639 C 321.536 180.807,321.529 181.031,321.242 181.318 M278.460 181.500 C 278.860 181.900,274.504 182.000,256.680 182.000 C 244.426 182.000,234.400 181.904,234.400 181.787 C 234.400 180.712,277.393 180.432,278.460 181.500 M300.000 182.376 C 300.000 183.073,299.323 183.178,298.559 182.600 C 297.840 182.056,297.858 182.025,298.900 182.013 C 299.505 182.006,300.000 182.169,300.000 182.376 M319.000 182.400 C 318.864 182.620,318.493 182.800,318.176 182.800 C 317.859 182.800,317.600 182.620,317.600 182.400 C 317.600 182.180,317.971 182.000,318.424 182.000 C 318.877 182.000,319.136 182.180,319.000 182.400 M278.654 182.998 C 278.781 183.326,279.026 183.507,279.200 183.400 C 280.088 182.851,280.525 262.366,279.642 263.883 C 279.315 264.444,279.210 264.079,279.159 262.200 L 279.093 259.800 278.780 261.600 C 278.482 263.315,277.674 266.547,277.330 267.400 C 277.140 267.871,276.496 268.937,275.397 270.600 C 274.223 272.377,270.333 276.002,269.330 276.253 C 268.850 276.374,268.361 276.726,268.241 277.036 C 268.122 277.346,267.738 277.600,267.386 277.600 C 267.035 277.600,266.354 277.823,265.874 278.095 C 265.393 278.367,264.010 278.986,262.800 279.471 C 260.857 280.250,260.709 280.386,261.534 280.632 C 262.698 280.980,261.937 281.585,260.324 281.594 C 258.962 281.602,258.487 280.915,259.694 280.683 C 260.302 280.566,260.139 280.492,259.200 280.459 C 258.430 280.431,256.916 280.677,255.836 281.004 C 253.241 281.792,246.094 281.789,243.065 281.000 C 240.349 280.293,239.069 280.203,239.989 280.785 C 240.876 281.346,239.499 281.773,238.099 281.371 C 237.065 281.074,237.054 281.046,237.900 280.900 C 239.153 280.683,239.024 280.286,237.500 279.668 C 236.785 279.378,235.795 278.978,235.300 278.779 L 234.400 278.417 234.400 230.642 C 234.400 192.796,234.504 182.825,234.900 182.665 C 236.327 182.089,278.429 182.409,278.654 182.998 M303.600 183.600 C 303.600 183.820,303.071 184.000,302.424 184.000 C 301.777 184.000,301.136 183.820,301.000 183.600 C 300.853 183.362,301.329 183.200,302.176 183.200 C 302.959 183.200,303.600 183.380,303.600 183.600 M316.200 183.600 C 316.064 183.820,315.524 184.000,315.000 184.000 C 314.476 184.000,313.936 183.820,313.800 183.600 C 313.653 183.361,314.137 183.200,315.000 183.200 C 315.863 183.200,316.347 183.361,316.200 183.600 M286.000 228.624 C 286.000 250.537,285.865 261.564,285.600 261.400 C 285.149 261.121,285.017 196.316,285.467 195.867 C 285.613 195.720,285.793 195.600,285.867 195.600 C 285.940 195.600,286.000 210.461,286.000 228.624 M330.768 196.300 C 331.156 196.967,331.176 196.967,331.188 196.300 C 331.205 195.293,331.944 195.437,332.209 196.500 C 332.688 198.419,332.220 243.368,331.712 244.200 C 331.301 244.874,331.213 244.465,331.149 241.600 L 331.074 238.200 330.793 240.800 C 330.377 244.638,328.829 248.716,327.418 249.688 C 327.133 249.884,327.156 250.228,327.492 250.769 C 327.768 251.216,327.825 251.661,327.622 251.786 C 327.423 251.909,327.202 251.715,327.130 251.354 C 327.034 250.869,326.478 251.231,325.000 252.739 C 323.900 253.861,322.834 254.784,322.631 254.790 C 322.429 254.795,321.933 255.099,321.529 255.464 C 320.250 256.621,316.991 258.290,315.000 258.807 C 313.894 259.094,313.941 259.122,315.600 259.172 C 317.273 259.222,317.345 259.267,316.624 259.813 C 315.612 260.578,314.131 260.563,313.695 259.785 C 313.386 259.231,313.232 259.231,312.175 259.782 C 311.529 260.119,310.177 260.396,309.171 260.398 C 308.165 260.399,306.539 260.674,305.558 261.008 C 304.133 261.494,302.038 261.595,295.186 261.508 L 286.600 261.400 286.497 229.000 C 286.440 211.180,286.479 196.375,286.584 196.100 C 286.929 195.195,330.239 195.391,330.768 196.300 M330.800 246.600 C 330.800 246.904,330.620 247.264,330.400 247.400 C 330.172 247.541,330.000 247.196,330.000 246.600 C 330.000 246.004,330.172 245.659,330.400 245.800 C 330.620 245.936,330.800 246.296,330.800 246.600 M151.909 253.528 C 152.027 253.880,150.075 254.000,144.233 254.000 C 137.180 254.000,135.288 253.754,136.900 253.048 C 137.930 252.596,151.746 253.038,151.909 253.528 M323.600 255.386 C 323.600 255.488,323.240 255.765,322.800 256.000 C 322.161 256.342,322.000 256.304,322.000 255.814 C 322.000 255.467,322.347 255.200,322.800 255.200 C 323.240 255.200,323.600 255.284,323.600 255.386 M319.400 258.400 C 319.264 258.620,318.893 258.800,318.576 258.800 C 318.259 258.800,318.000 258.620,318.000 258.400 C 318.000 258.180,318.371 258.000,318.824 258.000 C 319.277 258.000,319.536 258.180,319.400 258.400 M312.400 261.200 C 311.618 261.706,310.512 261.706,310.200 261.200 C 310.052 260.960,310.561 260.802,311.476 260.806 C 312.607 260.811,312.845 260.912,312.400 261.200 M305.200 262.458 C 303.661 263.085,287.372 263.122,286.745 262.500 C 286.341 262.100,288.234 262.005,296.220 262.025 C 303.402 262.044,305.920 262.165,305.200 262.458 M279.112 266.041 C 279.173 266.357,278.954 266.972,278.624 267.408 C 278.059 268.156,278.025 268.115,278.013 266.667 C 278.000 265.168,278.848 264.685,279.112 266.041 M277.600 269.376 C 277.600 269.693,277.420 270.064,277.200 270.200 C 276.980 270.336,276.800 270.077,276.800 269.624 C 276.800 269.171,276.980 268.800,277.200 268.800 C 277.420 268.800,277.600 269.059,277.600 269.376 M274.860 273.000 C 274.860 273.209,274.666 273.445,274.430 273.523 C 274.194 273.602,274.000 273.367,274.000 273.000 C 274.000 272.633,274.194 272.398,274.430 272.477 C 274.666 272.555,274.860 272.791,274.860 273.000 M268.400 278.357 C 268.400 278.807,267.360 279.226,267.039 278.906 C 266.558 278.424,266.820 278.000,267.600 278.000 C 268.040 278.000,268.400 278.161,268.400 278.357 M265.800 279.600 C 265.664 279.820,265.293 280.000,264.976 280.000 C 264.659 280.000,264.400 279.820,264.400 279.600 C 264.400 279.380,264.771 279.200,265.224 279.200 C 265.677 279.200,265.936 279.380,265.800 279.600 M255.800 282.400 C 255.360 282.589,252.480 282.744,249.400 282.744 C 246.320 282.744,243.440 282.589,243.000 282.400 C 242.515 282.191,245.031 282.056,249.400 282.056 C 253.769 282.056,256.285 282.191,255.800 282.400 M76.800 298.400 C 76.800 298.911,74.391 298.911,73.600 298.400 C 73.166 298.120,73.526 298.011,74.900 298.006 C 75.945 298.003,76.800 298.180,76.800 298.400 M94.400 302.400 C 94.400 302.620,93.871 302.800,93.224 302.800 C 92.577 302.800,91.936 302.620,91.800 302.400 C 91.653 302.162,92.129 302.000,92.976 302.000 C 93.759 302.000,94.400 302.180,94.400 302.400 M112.600 306.400 C 112.286 306.909,110.387 306.909,109.600 306.400 C 109.167 306.120,109.534 306.011,110.924 306.006 C 112.106 306.002,112.752 306.154,112.600 306.400 M118.690 307.700 C 118.483 308.283,116.463 308.223,115.856 307.616 C 115.568 307.328,115.967 307.200,117.153 307.200 C 118.352 307.200,118.813 307.350,118.690 307.700 M132.000 310.400 C 132.000 310.912,128.393 310.912,127.600 310.400 C 127.177 310.127,127.738 310.010,129.500 310.006 C 130.904 310.003,132.000 310.175,132.000 310.400 M136.379 311.826 C 136.029 312.247,135.523 312.368,134.830 312.197 C 132.898 311.721,132.970 311.200,134.969 311.200 C 136.674 311.200,136.838 311.273,136.379 311.826 M150.291 314.500 C 150.088 315.076,146.260 314.995,145.231 314.394 C 144.804 314.143,145.547 314.020,147.533 314.012 C 149.711 314.003,150.421 314.129,150.291 314.500 M154.400 315.600 C 154.400 316.111,151.991 316.111,151.200 315.600 C 150.766 315.320,151.126 315.211,152.500 315.206 C 153.545 315.203,154.400 315.380,154.400 315.600 M167.735 318.626 C 167.545 319.120,167.145 319.195,165.847 318.981 C 162.979 318.509,162.800 318.025,165.487 318.012 C 167.583 318.002,167.937 318.099,167.735 318.626 M178.400 321.200 C 178.400 321.709,176.788 321.709,176.000 321.200 C 175.554 320.912,175.784 320.811,176.900 320.806 C 177.725 320.803,178.400 320.980,178.400 321.200 M185.224 322.571 C 184.898 322.964,184.291 323.072,183.275 322.917 C 180.554 322.501,180.488 322.025,183.149 322.012 C 185.312 322.002,185.626 322.086,185.224 322.571 M203.200 326.400 C 203.200 326.912,200.392 326.912,199.600 326.400 C 199.170 326.122,199.597 326.011,201.100 326.006 C 202.255 326.003,203.200 326.180,203.200 326.400 M214.600 329.200 C 214.464 329.420,213.834 329.600,213.200 329.600 C 212.566 329.600,211.936 329.420,211.800 329.200 C 211.650 328.958,212.204 328.800,213.200 328.800 C 214.196 328.800,214.750 328.958,214.600 329.200 M220.800 330.400 C 220.800 330.911,218.391 330.911,217.600 330.400 C 217.166 330.120,217.526 330.011,218.900 330.006 C 219.945 330.003,220.800 330.180,220.800 330.400 M226.600 331.600 C 226.285 332.110,223.988 332.110,223.200 331.600 C 222.771 331.323,223.205 331.211,224.724 331.206 C 226.039 331.202,226.753 331.352,226.600 331.600 " stroke="none" fill="#545cac" fill-rule="evenodd"></path><path id="path2" d="M223.000 70.822 C 222.340 71.008,220.900 71.358,219.800 71.598 C 218.700 71.839,216.990 72.228,216.000 72.463 C 215.010 72.699,212.940 73.156,211.400 73.479 C 209.860 73.802,207.430 74.333,206.000 74.658 C 204.570 74.983,202.230 75.489,200.800 75.782 C 199.370 76.076,197.120 76.585,195.800 76.915 C 194.480 77.244,191.960 77.810,190.200 78.172 C 188.440 78.534,186.460 78.992,185.800 79.191 C 185.140 79.389,183.880 79.660,183.000 79.792 C 182.120 79.925,180.410 80.287,179.200 80.598 C 177.990 80.909,175.200 81.537,173.000 81.996 C 170.800 82.454,168.460 82.991,167.800 83.190 C 167.140 83.389,165.880 83.660,165.000 83.792 C 164.120 83.925,162.410 84.287,161.200 84.598 C 159.990 84.909,157.200 85.543,155.000 86.007 C 152.800 86.472,149.920 87.099,148.600 87.401 C 147.280 87.703,144.400 88.337,142.200 88.810 C 140.000 89.283,137.822 89.818,137.361 89.998 C 136.900 90.179,135.460 90.456,134.161 90.614 C 132.862 90.771,131.512 91.049,131.161 91.232 C 130.809 91.414,129.459 91.752,128.161 91.983 C 126.862 92.214,124.270 92.778,122.400 93.236 C 120.530 93.694,117.740 94.312,116.200 94.610 C 114.660 94.908,112.680 95.346,111.800 95.582 C 109.980 96.072,101.800 97.868,98.191 98.571 C 96.866 98.829,95.543 99.188,95.251 99.369 C 94.959 99.549,93.703 99.834,92.460 100.003 C 91.217 100.171,88.580 100.694,86.600 101.165 C 84.620 101.635,81.920 102.205,80.600 102.430 C 79.280 102.656,77.887 103.012,77.504 103.221 C 77.121 103.431,75.623 103.770,74.176 103.975 C 72.729 104.180,71.287 104.562,70.972 104.823 C 70.476 105.235,70.412 118.237,70.499 200.519 L 70.600 295.740 72.800 296.294 C 75.006 296.849,77.891 297.506,82.000 298.388 C 83.210 298.648,85.190 299.102,86.400 299.396 C 87.610 299.690,89.590 300.134,90.800 300.382 C 92.010 300.630,94.080 301.077,95.400 301.375 C 96.720 301.672,98.790 302.129,100.000 302.388 C 101.210 302.648,103.190 303.102,104.400 303.397 C 106.433 303.892,112.868 305.300,115.200 305.760 C 116.624 306.041,119.834 306.770,122.400 307.396 C 124.430 307.891,130.855 309.297,133.200 309.760 C 134.794 310.075,138.016 310.813,140.400 311.411 C 141.610 311.715,144.400 312.341,146.600 312.804 C 148.800 313.266,151.602 313.905,152.826 314.222 C 154.051 314.540,155.467 314.800,155.973 314.800 C 156.479 314.800,157.727 315.067,158.746 315.393 C 159.766 315.719,162.400 316.359,164.600 316.815 C 166.800 317.272,169.602 317.905,170.826 318.222 C 172.051 318.540,173.548 318.800,174.153 318.800 C 174.758 318.800,175.609 318.991,176.044 319.224 C 176.480 319.457,178.133 319.891,179.718 320.190 C 181.303 320.488,184.577 321.197,186.993 321.766 C 189.409 322.335,191.806 322.800,192.319 322.800 C 192.832 322.800,193.609 322.991,194.044 323.224 C 194.480 323.457,196.133 323.900,197.718 324.208 C 199.303 324.516,201.770 325.027,203.200 325.342 C 204.630 325.658,206.790 326.129,208.000 326.388 C 209.210 326.648,210.920 327.052,211.800 327.287 C 212.680 327.521,214.570 327.944,216.000 328.226 C 217.430 328.508,220.220 329.094,222.200 329.527 C 224.180 329.961,225.936 330.189,226.102 330.035 C 226.446 329.717,226.518 71.315,226.175 70.760 C 225.910 70.330,224.649 70.355,223.000 70.822 M226.000 200.171 C 226.000 322.679,225.965 329.148,225.300 329.283 C 224.915 329.360,223.430 329.183,222.000 328.888 C 220.570 328.594,218.222 328.126,216.781 327.850 C 215.341 327.574,213.963 327.224,213.719 327.073 C 213.475 326.923,212.223 326.625,210.937 326.412 C 209.652 326.198,206.980 325.641,205.000 325.172 C 203.020 324.704,200.211 324.095,198.757 323.819 C 197.304 323.543,195.891 323.180,195.617 323.011 C 195.344 322.842,194.103 322.553,192.860 322.368 C 191.617 322.184,188.980 321.652,187.000 321.186 C 185.020 320.720,182.230 320.128,180.800 319.870 C 179.370 319.611,177.965 319.248,177.677 319.062 C 177.390 318.877,176.220 318.578,175.077 318.399 C 173.935 318.220,171.290 317.682,169.200 317.205 C 167.110 316.727,164.230 316.126,162.800 315.868 C 161.370 315.611,159.965 315.248,159.677 315.062 C 159.390 314.877,158.220 314.578,157.077 314.399 C 155.935 314.220,153.290 313.681,151.200 313.203 C 149.110 312.724,146.320 312.145,145.000 311.915 C 143.680 311.685,142.033 311.251,141.340 310.949 C 140.646 310.647,139.533 310.400,138.866 310.400 C 138.198 310.400,137.145 310.207,136.526 309.971 C 135.465 309.567,132.819 308.999,126.800 307.882 C 125.370 307.617,124.003 307.272,123.762 307.115 C 123.521 306.958,122.531 306.718,121.562 306.583 C 120.593 306.447,118.900 306.096,117.800 305.804 C 115.191 305.109,111.501 304.301,104.000 302.784 C 102.790 302.539,101.170 302.144,100.400 301.905 C 98.968 301.462,95.277 300.691,91.000 299.942 C 89.680 299.711,88.271 299.350,87.869 299.139 C 87.468 298.928,86.208 298.650,85.069 298.522 C 83.931 298.394,82.677 298.124,82.282 297.921 C 81.887 297.718,80.267 297.302,78.682 296.996 C 72.593 295.819,71.393 295.513,71.107 295.064 C 70.722 294.459,70.721 106.338,71.106 105.756 C 71.442 105.250,73.219 104.663,76.400 104.008 C 77.610 103.759,79.770 103.300,81.200 102.987 C 82.630 102.674,84.790 102.221,86.000 101.981 C 87.210 101.741,89.100 101.303,90.200 101.009 C 91.300 100.714,93.190 100.267,94.400 100.014 C 95.610 99.762,97.770 99.298,99.200 98.983 C 100.630 98.667,103.206 98.141,104.925 97.813 C 106.644 97.484,108.245 97.096,108.482 96.949 C 108.720 96.802,110.194 96.431,111.757 96.124 C 113.321 95.817,115.770 95.306,117.200 94.988 C 118.630 94.670,121.206 94.141,122.925 93.813 C 124.644 93.484,126.245 93.096,126.482 92.949 C 126.720 92.802,128.194 92.431,129.757 92.124 C 131.321 91.817,133.770 91.306,135.200 90.988 C 136.630 90.670,139.206 90.141,140.925 89.813 C 142.644 89.484,144.245 89.096,144.482 88.949 C 144.720 88.802,146.104 88.456,147.557 88.180 C 149.011 87.903,150.920 87.493,151.800 87.269 C 152.680 87.044,154.840 86.573,156.600 86.223 C 158.360 85.872,160.520 85.399,161.400 85.173 C 162.938 84.777,165.720 84.162,170.400 83.185 C 171.610 82.932,173.476 82.472,174.546 82.163 C 175.616 81.853,176.999 81.600,177.620 81.600 C 178.240 81.600,179.255 81.398,179.874 81.152 C 180.493 80.905,182.260 80.448,183.800 80.135 C 185.340 79.822,187.770 79.308,189.200 78.992 C 190.630 78.676,192.790 78.216,194.000 77.969 C 195.210 77.723,197.100 77.290,198.200 77.009 C 199.300 76.727,201.190 76.285,202.400 76.026 C 203.610 75.767,205.770 75.300,207.200 74.987 C 208.630 74.674,210.790 74.223,212.000 73.985 C 213.210 73.747,215.034 73.293,216.054 72.976 C 217.073 72.659,218.423 72.390,219.054 72.377 C 219.684 72.365,220.830 72.116,221.600 71.825 C 222.370 71.534,223.675 71.274,224.500 71.248 L 226.000 71.200 226.000 200.171 M246.800 127.206 C 246.470 127.423,245.533 127.785,244.718 128.011 C 242.805 128.541,237.635 131.999,236.039 133.817 L 234.800 135.228 234.800 148.240 C 234.800 163.017,234.563 161.942,238.503 165.028 C 244.868 170.012,254.568 171.627,260.200 168.641 C 260.860 168.291,261.537 168.004,261.704 168.002 C 262.406 167.997,266.351 164.925,268.252 162.903 C 278.873 151.609,273.834 132.664,258.867 127.623 C 256.195 126.723,247.969 126.439,246.800 127.206 M258.200 128.045 C 259.300 128.350,260.467 128.772,260.793 128.981 C 261.120 129.191,262.200 129.790,263.193 130.313 C 265.355 131.449,269.920 136.050,270.480 137.657 C 270.699 138.285,271.041 138.800,271.239 138.800 C 271.438 138.800,271.600 139.080,271.600 139.422 C 271.600 139.764,271.970 140.856,272.422 141.848 C 273.869 145.025,273.027 156.434,271.230 158.000 C 271.103 158.110,270.221 159.370,269.269 160.800 C 267.505 163.451,264.213 166.307,261.600 167.455 C 257.642 169.193,253.831 169.728,249.188 169.199 C 247.386 168.993,245.707 168.660,245.456 168.459 C 245.205 168.257,244.415 167.967,243.700 167.814 C 242.985 167.662,242.400 167.383,242.400 167.195 C 242.400 167.007,242.016 166.732,241.548 166.583 C 240.595 166.281,238.945 164.953,236.700 162.683 L 235.200 161.166 235.200 148.366 C 235.200 138.714,235.323 135.418,235.700 134.964 C 235.975 134.633,236.542 134.017,236.960 133.595 C 237.890 132.658,242.307 129.600,242.733 129.600 C 242.902 129.600,243.256 129.384,243.520 129.120 C 245.183 127.457,253.808 126.826,258.200 128.045 M304.200 139.995 C 299.012 140.762,293.007 145.124,289.856 150.414 C 283.404 161.243,287.789 175.307,299.400 181.024 L 302.600 182.600 308.600 182.600 C 314.600 182.600,314.600 182.600,317.400 181.246 C 340.993 169.841,330.213 136.151,304.200 139.995 M315.800 141.317 C 320.000 142.939,325.295 147.124,326.410 149.702 C 326.623 150.196,326.967 150.870,327.174 151.200 C 330.142 155.933,330.700 164.647,328.327 169.194 C 327.927 169.961,327.600 170.728,327.600 170.898 C 327.600 171.294,325.001 175.001,324.086 175.910 C 317.169 182.779,307.744 184.432,299.207 180.273 C 298.221 179.793,297.173 179.175,296.879 178.900 C 296.584 178.625,296.218 178.400,296.064 178.400 C 295.776 178.400,292.504 175.253,291.800 174.299 C 287.386 168.313,285.960 158.471,288.800 153.600 C 288.992 153.270,289.647 152.041,290.256 150.870 C 291.216 149.021,295.136 144.400,295.745 144.400 C 295.863 144.400,296.743 143.871,297.700 143.226 C 302.162 140.214,310.633 139.321,315.800 141.317 M169.800 148.005 C 161.654 148.503,151.052 149.226,143.200 149.819 C 138.910 150.143,133.780 150.419,131.800 150.433 C 129.820 150.446,126.760 150.624,125.000 150.827 C 123.240 151.031,118.204 151.390,113.808 151.626 C 109.412 151.862,105.587 152.244,105.308 152.476 C 104.538 153.115,104.578 172.518,105.351 173.159 C 105.764 173.502,108.474 173.465,116.251 173.008 C 121.943 172.674,127.455 172.400,128.500 172.400 L 130.400 172.400 130.400 212.826 C 130.400 239.928,130.536 253.508,130.814 254.026 C 131.177 254.705,131.630 254.791,134.514 254.724 C 137.305 254.660,137.438 254.630,135.400 254.521 C 134.080 254.451,132.595 254.302,132.100 254.189 L 131.200 253.985 131.200 213.200 L 131.200 172.415 130.135 172.148 C 129.022 171.869,113.475 172.235,108.560 172.656 C 105.006 172.961,105.213 173.588,105.205 162.474 C 105.198 151.483,104.314 152.552,113.689 152.220 C 117.930 152.070,123.650 151.702,126.400 151.401 C 129.150 151.100,134.369 150.755,137.998 150.634 C 141.627 150.513,146.757 150.229,149.398 150.003 C 152.039 149.778,157.260 149.414,161.000 149.196 C 164.740 148.978,170.896 148.597,174.680 148.349 C 178.464 148.102,181.839 148.006,182.180 148.137 C 182.847 148.393,183.142 168.080,182.494 169.031 C 182.213 169.443,173.336 170.063,159.500 170.638 C 156.255 170.773,153.558 170.909,153.506 170.942 C 153.455 170.974,153.320 189.895,153.206 212.988 L 153.000 254.976 146.200 254.928 L 139.400 254.879 144.200 255.235 C 153.224 255.906,152.893 255.922,153.475 254.800 C 153.891 253.999,153.992 245.640,153.986 212.831 C 153.982 190.298,154.118 171.727,154.289 171.563 C 154.460 171.398,160.360 171.072,167.400 170.839 C 174.440 170.606,180.878 170.222,181.706 169.987 L 183.213 169.559 183.106 158.679 L 183.000 147.800 178.600 147.768 C 176.180 147.750,172.220 147.857,169.800 148.005 M235.070 183.063 C 234.528 183.605,234.756 277.870,235.300 278.268 C 242.454 283.511,263.877 280.959,271.770 273.923 C 278.454 267.966,278.200 269.988,278.200 222.800 L 278.200 183.000 256.770 182.897 C 244.984 182.840,235.219 182.915,235.070 183.063 M277.757 183.833 C 277.891 184.181,277.996 201.416,277.992 222.133 C 277.984 261.472,277.888 263.953,276.250 267.000 C 275.895 267.660,275.604 268.334,275.602 268.497 C 275.584 270.675,265.430 278.400,262.585 278.400 C 262.220 278.400,261.354 278.660,260.660 278.978 C 257.338 280.503,241.825 280.504,238.903 278.980 C 238.296 278.664,237.401 278.404,236.914 278.402 C 236.427 278.401,235.842 278.052,235.614 277.626 C 235.166 276.789,234.998 184.992,235.443 183.833 C 235.813 182.867,277.387 182.867,277.757 183.833 M286.984 196.500 C 286.879 196.775,286.840 211.400,286.897 229.000 L 287.000 261.000 294.800 261.000 C 302.625 261.000,310.512 260.210,312.313 259.247 C 312.772 259.001,313.447 258.800,313.813 258.800 C 316.307 258.800,324.053 253.632,326.595 250.272 C 330.402 245.240,330.400 245.258,330.400 218.780 L 330.400 196.000 308.787 196.000 C 291.866 196.000,287.133 196.109,286.984 196.500 M329.992 217.700 C 329.982 245.368,329.789 246.523,324.217 252.239 C 322.070 254.442,314.997 258.400,313.207 258.400 C 312.772 258.400,311.738 258.665,310.908 258.988 C 308.134 260.071,290.938 261.323,288.219 260.641 L 287.200 260.385 287.200 228.392 L 287.200 196.400 308.600 196.400 L 330.000 196.400 329.992 217.700 " stroke="none" fill="#a1a4d2" fill-rule="evenodd"></path><path id="path3" d="M225.000 70.285 C 225.440 70.391,225.934 70.604,226.099 70.758 C 226.492 71.126,226.496 329.671,226.102 330.035 C 225.837 330.281,220.796 329.374,218.000 328.576 C 217.214 328.352,217.099 328.397,217.463 328.788 C 217.946 329.308,222.799 330.401,225.178 330.527 C 226.336 330.588,226.601 330.440,226.838 329.600 C 227.312 327.920,227.260 71.660,226.786 70.774 C 226.520 70.277,225.983 70.017,225.286 70.046 C 224.456 70.082,224.388 70.138,225.000 70.285 M220.842 70.834 C 220.315 71.045,219.994 71.328,220.129 71.462 C 220.264 71.597,220.875 71.514,221.487 71.276 C 222.099 71.039,222.960 70.766,223.400 70.669 C 223.908 70.557,223.762 70.485,223.000 70.472 C 222.340 70.460,221.369 70.623,220.842 70.834 M215.600 71.888 C 215.050 71.987,214.429 72.232,214.220 72.434 C 214.011 72.635,213.381 72.821,212.820 72.846 C 212.133 72.878,212.030 72.953,212.505 73.077 C 212.893 73.178,214.063 72.985,215.105 72.648 C 216.147 72.311,217.630 71.966,218.400 71.882 C 219.744 71.734,219.736 71.728,218.200 71.718 C 217.320 71.713,216.150 71.790,215.600 71.888 M207.600 73.800 C 205.714 74.526,207.195 74.533,209.800 73.809 C 211.669 73.290,211.709 73.254,210.400 73.257 C 209.630 73.259,208.370 73.503,207.600 73.800 M202.600 75.020 C 201.249 75.677,202.013 75.623,204.800 74.863 L 206.200 74.482 205.000 74.459 C 204.340 74.446,203.260 74.699,202.600 75.020 M197.600 75.888 C 197.050 75.987,196.429 76.232,196.220 76.434 C 196.011 76.635,195.471 76.814,195.020 76.832 C 194.569 76.849,194.424 76.954,194.698 77.064 C 194.972 77.175,196.052 76.990,197.098 76.652 C 198.144 76.315,199.540 75.967,200.200 75.879 C 201.292 75.734,201.274 75.719,200.000 75.714 C 199.230 75.711,198.150 75.790,197.600 75.888 M189.800 77.822 L 188.600 78.408 190.000 78.159 C 190.770 78.022,192.030 77.771,192.800 77.601 L 194.200 77.292 192.600 77.264 C 191.720 77.249,190.460 77.500,189.800 77.822 M185.000 78.685 C 184.560 78.791,184.020 79.063,183.800 79.289 C 183.401 79.700,183.663 79.664,187.200 78.824 L 188.600 78.492 187.200 78.492 C 186.430 78.493,185.440 78.579,185.000 78.685 M179.600 79.893 C 179.050 79.994,178.420 80.222,178.200 80.400 C 177.980 80.577,176.720 80.853,175.400 81.012 C 174.080 81.170,172.550 81.558,172.000 81.873 L 171.000 82.446 172.000 82.209 C 172.550 82.079,174.323 81.708,175.940 81.385 C 177.556 81.062,179.050 80.692,179.260 80.563 C 179.469 80.434,180.486 80.185,181.520 80.011 C 183.106 79.744,183.181 79.695,182.000 79.702 C 181.230 79.706,180.150 79.792,179.600 79.893 M166.295 82.972 C 165.468 83.267,163.805 83.632,162.602 83.783 C 161.398 83.933,160.322 84.202,160.212 84.381 C 160.101 84.559,158.884 84.829,157.506 84.979 C 156.128 85.129,154.550 85.522,154.000 85.851 L 153.000 86.450 154.000 86.211 C 154.550 86.080,156.323 85.708,157.940 85.385 C 159.556 85.062,161.030 84.705,161.214 84.591 C 161.398 84.477,162.956 84.113,164.675 83.781 C 166.394 83.449,168.430 83.023,169.200 82.835 L 170.600 82.492 169.200 82.464 C 168.430 82.448,167.123 82.677,166.295 82.972 M148.054 87.016 C 147.314 87.337,146.234 87.621,145.654 87.646 C 144.867 87.681,144.794 87.742,145.365 87.888 C 145.786 87.996,147.226 87.802,148.565 87.458 C 149.904 87.114,151.360 86.756,151.800 86.663 C 152.240 86.569,151.880 86.479,151.000 86.462 C 150.120 86.445,148.794 86.694,148.054 87.016 M142.000 88.368 C 141.670 88.556,140.500 88.833,139.400 88.983 C 138.300 89.133,136.950 89.524,136.400 89.853 L 135.400 90.450 136.400 90.200 C 136.950 90.062,138.913 89.602,140.763 89.178 C 142.613 88.754,144.218 88.316,144.330 88.204 C 144.674 87.859,142.638 88.003,142.000 88.368 M130.500 90.812 C 130.005 91.011,129.600 91.291,129.600 91.434 C 129.600 91.577,130.005 91.565,130.500 91.408 C 130.995 91.251,132.120 90.982,133.000 90.811 L 134.600 90.500 133.000 90.475 C 132.120 90.462,130.995 90.613,130.500 90.812 M127.300 91.876 C 127.685 91.976,128.315 91.976,128.700 91.876 C 129.085 91.775,128.770 91.693,128.000 91.693 C 127.230 91.693,126.915 91.775,127.300 91.876 M124.000 92.362 C 123.670 92.548,122.536 92.825,121.481 92.978 C 120.425 93.130,118.985 93.521,118.281 93.846 C 117.243 94.326,117.190 94.402,118.000 94.248 C 120.511 93.770,126.146 92.387,126.330 92.204 C 126.671 91.863,124.642 92.001,124.000 92.362 M112.200 94.978 C 111.540 95.286,109.830 95.723,108.400 95.949 C 105.510 96.408,101.238 97.376,99.400 97.991 L 98.200 98.392 99.400 98.253 C 101.089 98.058,110.201 96.081,112.600 95.390 C 113.700 95.073,115.050 94.745,115.600 94.661 C 116.197 94.570,115.955 94.491,115.000 94.464 C 114.120 94.439,112.860 94.670,112.200 94.978 M94.576 98.987 C 94.149 99.310,93.080 99.609,92.200 99.651 C 90.619 99.727,90.616 99.730,91.964 99.894 C 92.713 99.985,94.063 99.789,94.964 99.458 C 95.864 99.127,96.960 98.774,97.400 98.674 C 97.852 98.572,97.581 98.473,96.776 98.446 C 95.994 98.421,95.004 98.664,94.576 98.987 M87.817 100.372 C 87.691 100.577,86.602 100.867,85.398 101.017 C 84.195 101.168,82.532 101.549,81.705 101.863 L 80.200 102.436 81.600 102.230 C 83.702 101.921,90.097 100.437,90.330 100.204 C 90.442 100.092,89.974 100.000,89.290 100.000 C 88.607 100.000,87.944 100.167,87.817 100.372 M76.842 102.834 C 76.315 103.045,76.000 103.334,76.143 103.476 C 76.285 103.618,76.806 103.532,77.301 103.284 C 77.795 103.036,78.650 102.760,79.200 102.671 C 80.067 102.531,80.040 102.505,79.000 102.480 C 78.340 102.464,77.369 102.623,76.842 102.834 M71.704 103.882 C 69.452 104.316,69.600 97.529,69.600 200.315 C 69.600 301.369,69.491 296.434,71.714 296.353 L 73.000 296.305 71.800 296.049 L 70.600 295.792 70.499 200.546 C 70.410 116.761,70.470 105.240,70.992 104.807 C 71.318 104.536,72.533 104.176,73.693 104.007 C 75.558 103.735,75.616 103.700,74.200 103.704 C 73.320 103.707,72.197 103.787,71.704 103.882 M246.189 126.940 C 245.755 127.237,244.909 127.600,244.308 127.746 C 242.035 128.298,238.390 130.810,235.538 133.789 L 234.400 134.978 234.400 148.550 L 234.400 162.122 236.100 163.684 C 238.187 165.601,242.269 168.400,242.979 168.400 C 243.267 168.400,243.726 168.670,244.000 169.000 C 244.274 169.330,244.881 169.589,245.349 169.576 C 245.878 169.561,245.206 169.067,243.575 168.271 C 240.782 166.906,235.845 163.205,235.192 161.986 C 234.959 161.550,234.800 155.982,234.800 148.240 L 234.800 135.228 236.010 133.850 C 237.611 132.026,242.056 129.021,244.800 127.907 C 247.128 126.962,256.357 126.566,258.200 127.333 C 258.988 127.660,258.989 127.656,258.224 127.033 C 257.180 126.183,247.405 126.108,246.189 126.940 M263.145 129.622 C 267.779 132.562,271.663 137.433,273.335 142.400 C 273.446 142.730,273.551 142.527,273.568 141.949 C 273.586 141.371,273.330 140.674,273.000 140.400 C 272.670 140.126,272.400 139.577,272.400 139.180 C 272.400 138.782,272.130 138.187,271.800 137.857 C 271.470 137.527,271.200 137.135,271.200 136.985 C 271.200 136.533,267.157 131.600,266.786 131.600 C 266.596 131.600,265.937 131.133,265.321 130.561 C 264.329 129.642,261.431 127.994,260.825 128.004 C 260.701 128.006,261.745 128.734,263.145 129.622 M307.600 139.238 C 306.833 139.455,307.042 139.530,308.500 139.560 C 309.545 139.582,310.400 139.531,310.400 139.447 C 310.400 139.111,308.542 138.973,307.600 139.238 M300.800 140.429 C 299.810 140.869,298.730 141.403,298.400 141.616 C 298.070 141.828,297.430 142.164,296.978 142.362 C 296.053 142.766,290.871 147.767,290.099 149.000 C 289.824 149.440,289.407 150.246,289.174 150.792 C 288.941 151.337,288.613 151.877,288.445 151.992 C 286.832 153.095,285.716 164.171,286.945 166.890 C 287.270 167.611,287.658 168.621,287.806 169.135 C 288.263 170.716,290.865 174.805,292.393 176.342 C 294.380 178.341,296.899 180.400,297.358 180.400 C 297.566 180.400,298.056 180.688,298.445 181.041 C 298.835 181.394,299.380 181.607,299.656 181.515 C 299.932 181.423,299.267 180.918,298.179 180.393 C 293.811 178.286,289.161 172.337,287.554 166.801 C 284.257 155.442,292.803 141.680,304.200 139.995 L 306.200 139.700 304.400 139.665 C 303.393 139.645,301.807 139.982,300.800 140.429 M313.050 140.000 C 315.560 140.368,320.142 142.516,321.900 144.149 C 322.615 144.813,323.200 145.241,323.200 145.099 C 323.200 144.601,321.329 142.829,320.369 142.417 C 319.836 142.189,319.130 141.828,318.800 141.615 C 317.121 140.531,314.258 139.605,312.722 139.650 L 311.000 139.700 313.050 140.000 M273.771 148.390 C 273.763 153.326,273.768 153.353,274.219 150.855 C 274.559 148.979,274.561 147.698,274.227 145.866 C 273.786 143.446,273.778 143.493,273.771 148.390 M325.047 147.013 C 335.485 159.600,330.335 176.774,314.400 182.520 C 313.892 182.704,313.898 182.742,314.439 182.768 C 315.047 182.799,317.117 181.969,318.400 181.181 C 318.730 180.978,319.552 180.562,320.227 180.257 C 321.627 179.623,326.670 174.724,327.235 173.448 C 327.441 172.982,327.991 171.970,328.456 171.200 C 331.357 166.399,331.651 156.534,329.016 152.407 C 328.808 152.080,328.206 151.000,327.680 150.007 C 327.153 149.013,326.470 148.056,326.161 147.880 C 325.853 147.704,325.594 147.344,325.587 147.080 C 325.581 146.816,325.086 146.246,324.487 145.813 C 323.628 145.192,323.745 145.443,325.047 147.013 M179.493 148.287 L 182.387 148.435 182.503 158.517 L 182.620 168.600 182.610 158.400 L 182.600 148.200 179.600 148.170 L 176.600 148.139 179.493 148.287 M169.200 148.675 C 168.650 148.760,166.130 148.977,163.600 149.158 L 159.000 149.486 163.800 149.509 C 166.440 149.521,170.310 149.301,172.400 149.020 L 176.200 148.509 173.200 148.514 C 171.550 148.517,169.750 148.590,169.200 148.675 M149.980 149.860 C 149.639 149.953,147.299 150.188,144.780 150.385 L 140.200 150.741 145.600 150.564 C 148.570 150.466,152.080 150.235,153.400 150.052 L 155.800 149.718 153.200 149.705 C 151.770 149.698,150.321 149.768,149.980 149.860 M127.600 151.255 C 126.390 151.451,122.700 151.761,119.400 151.944 L 113.400 152.278 117.800 152.310 C 120.220 152.328,123.820 152.161,125.800 151.939 C 127.780 151.716,131.740 151.402,134.600 151.240 L 139.800 150.945 134.800 150.922 C 132.050 150.910,128.810 151.060,127.600 151.255 M105.614 153.174 C 105.163 154.016,105.034 170.337,105.465 171.950 C 105.711 172.867,105.816 172.891,108.560 172.656 C 113.475 172.235,129.022 171.869,130.135 172.148 L 131.200 172.415 131.200 213.200 L 131.200 253.985 132.159 254.226 C 132.687 254.358,133.542 254.386,134.059 254.288 C 134.803 254.146,134.732 254.098,133.724 254.054 C 131.866 253.975,131.969 256.376,131.983 213.514 C 131.994 181.960,131.891 173.595,131.483 172.800 L 130.970 171.800 118.385 171.800 L 105.800 171.800 105.800 162.600 L 105.800 153.400 109.600 152.952 L 113.400 152.503 109.714 152.452 C 106.449 152.406,105.981 152.488,105.614 153.174 M273.256 154.400 C 272.941 157.996,265.714 166.489,261.598 168.102 C 261.108 168.295,261.121 168.343,261.671 168.368 C 262.041 168.386,262.613 168.130,262.943 167.800 C 263.273 167.470,263.725 167.200,263.947 167.200 C 264.439 167.200,268.134 164.064,268.364 163.451 C 268.455 163.211,268.910 162.714,269.377 162.347 C 269.844 161.980,270.756 160.626,271.405 159.340 C 272.054 158.053,272.827 156.700,273.124 156.333 C 273.421 155.966,273.584 155.246,273.487 154.733 C 273.389 154.220,273.285 154.070,273.256 154.400 M259.200 169.033 C 258.263 169.554,258.253 169.589,259.051 169.594 C 259.519 169.597,260.126 169.330,260.400 169.000 C 261.003 168.273,260.547 168.286,259.200 169.033 M166.400 169.806 L 159.800 170.279 164.400 170.307 C 166.930 170.323,172.060 170.104,175.800 169.820 L 182.600 169.304 177.800 169.319 C 175.160 169.326,170.030 169.546,166.400 169.806 M248.200 170.184 C 250.746 170.923,253.654 170.923,256.200 170.183 L 258.200 169.602 255.600 169.860 C 252.440 170.173,252.850 170.173,249.200 169.860 L 246.200 169.602 248.200 170.184 M153.190 171.426 C 152.944 172.074,152.835 187.425,152.895 213.126 L 152.991 253.800 153.202 212.400 C 153.318 189.630,153.455 170.963,153.507 170.918 C 153.558 170.872,154.905 170.773,156.500 170.697 L 159.400 170.559 156.490 170.479 C 153.703 170.403,153.564 170.443,153.190 171.426 M301.024 182.187 C 301.451 182.510,302.160 182.773,302.600 182.772 C 303.154 182.770,302.986 182.589,302.054 182.184 C 300.347 181.443,300.041 181.444,301.024 182.187 M234.900 182.665 C 234.504 182.825,234.400 192.796,234.400 230.642 L 234.400 278.417 235.500 278.865 C 236.105 279.111,237.167 279.557,237.860 279.856 C 238.554 280.155,239.490 280.400,239.941 280.400 C 240.392 280.400,241.798 280.670,243.065 281.000 C 245.798 281.712,252.864 281.797,255.438 281.149 C 258.251 280.440,257.238 280.304,252.909 280.807 C 247.434 281.443,237.720 280.043,235.298 278.267 C 234.900 277.975,234.818 268.124,234.898 230.450 L 235.000 183.000 256.600 183.000 L 278.200 183.000 278.200 222.800 C 278.200 244.690,278.055 263.230,277.879 264.000 L 277.558 265.400 278.279 264.000 C 279.148 262.313,279.648 184.785,278.801 183.201 C 278.388 182.431,236.742 181.922,234.900 182.665 M306.117 183.097 C 307.611 183.174,309.951 183.174,311.317 183.096 C 312.682 183.018,311.460 182.955,308.600 182.955 C 305.740 182.956,304.622 183.020,306.117 183.097 M286.584 196.100 C 286.479 196.375,286.440 211.180,286.497 229.000 L 286.600 261.400 295.218 261.508 C 302.197 261.595,304.136 261.499,305.418 261.002 L 307.000 260.389 304.800 260.694 C 303.590 260.863,299.090 261.000,294.800 261.000 L 287.000 261.000 287.000 228.600 L 287.000 196.200 308.700 196.097 L 330.400 195.993 330.400 218.777 C 330.400 246.757,330.240 247.604,323.887 253.178 C 323.054 253.909,322.464 254.598,322.576 254.709 C 322.870 255.003,327.187 250.694,327.194 250.100 C 327.197 249.825,327.335 249.600,327.501 249.600 C 327.870 249.600,329.330 246.832,330.244 244.400 C 331.094 242.142,331.624 197.939,330.820 196.437 C 330.269 195.407,286.974 195.078,286.584 196.100 M145.200 254.400 L 137.400 254.600 145.000 254.808 C 151.424 254.984,154.015 254.825,153.173 254.307 C 153.078 254.248,149.490 254.290,145.200 254.400 M321.380 255.174 C 321.171 255.380,319.560 256.276,317.800 257.165 C 316.040 258.054,314.870 258.775,315.200 258.767 C 315.530 258.759,316.610 258.323,317.600 257.797 C 318.590 257.272,319.767 256.671,320.216 256.463 C 320.665 256.254,321.273 255.795,321.565 255.442 C 322.139 254.751,322.005 254.559,321.380 255.174 M312.246 259.262 C 311.831 259.503,310.571 259.836,309.446 260.000 L 307.400 260.300 309.200 260.337 C 310.230 260.357,311.684 260.042,312.600 259.600 C 313.480 259.175,313.930 258.827,313.600 258.826 C 313.270 258.825,312.661 259.021,312.246 259.262 M276.665 267.552 C 275.520 269.931,273.201 272.790,270.885 274.677 C 268.742 276.423,268.525 277.157,270.642 275.500 C 272.952 273.691,276.400 269.768,276.400 268.948 C 276.400 268.791,276.686 268.347,277.035 267.961 C 277.384 267.575,277.609 266.982,277.535 266.643 C 277.452 266.264,277.116 266.615,276.665 267.552 M267.423 277.033 C 266.774 277.507,266.754 277.600,267.300 277.600 C 267.659 277.600,268.071 277.408,268.216 277.173 C 268.640 276.487,268.261 276.420,267.423 277.033 M265.380 277.942 C 264.872 278.399,260.996 279.659,259.000 280.015 L 257.400 280.300 258.864 280.350 C 259.670 280.377,261.380 280.007,262.664 279.526 C 265.023 278.644,266.923 277.600,266.169 277.600 C 265.944 277.600,265.589 277.754,265.380 277.942 M73.463 296.788 C 73.892 297.249,77.919 298.198,81.200 298.611 L 82.600 298.788 81.400 298.384 C 80.740 298.161,79.030 297.730,77.600 297.425 C 76.170 297.120,74.550 296.740,74.000 296.581 C 73.213 296.353,73.099 296.397,73.463 296.788 M85.200 299.600 C 86.410 300.011,88.210 300.337,89.200 300.324 L 91.000 300.300 89.000 299.993 C 87.900 299.824,86.493 299.486,85.874 299.243 C 85.255 298.999,84.355 298.812,83.874 298.826 C 83.393 298.841,83.990 299.189,85.200 299.600 M91.463 300.788 C 91.892 301.249,95.919 302.198,99.200 302.611 L 100.600 302.788 99.400 302.384 C 98.740 302.161,97.030 301.730,95.600 301.425 C 94.170 301.120,92.550 300.740,92.000 300.581 C 91.213 300.353,91.099 300.397,91.463 300.788 M101.400 303.080 C 101.840 303.183,102.971 303.523,103.914 303.834 C 104.857 304.145,106.297 304.379,107.114 304.353 L 108.600 304.306 106.800 303.991 C 105.810 303.818,104.493 303.479,103.874 303.238 C 103.255 302.997,102.265 302.821,101.674 302.846 C 100.852 302.882,100.788 302.937,101.400 303.080 M109.600 305.000 C 110.150 305.314,111.230 305.566,112.000 305.559 C 113.324 305.547,113.291 305.516,111.400 304.991 C 108.844 304.281,108.347 304.284,109.600 305.000 M114.800 306.068 C 117.487 306.810,118.792 306.900,117.000 306.220 C 116.120 305.885,114.950 305.628,114.400 305.647 C 113.570 305.676,113.638 305.748,114.800 306.068 M119.400 307.080 C 119.840 307.183,120.971 307.523,121.914 307.834 C 122.857 308.145,124.297 308.379,125.114 308.353 L 126.600 308.306 124.800 307.991 C 123.810 307.818,122.493 307.479,121.874 307.238 C 121.255 306.997,120.265 306.821,119.674 306.846 C 118.852 306.882,118.788 306.937,119.400 307.080 M127.376 309.013 C 127.804 309.336,128.884 309.588,129.776 309.573 L 131.400 309.546 129.400 308.991 C 126.842 308.280,126.414 308.285,127.376 309.013 M133.546 310.216 C 134.286 310.537,135.276 310.792,135.746 310.782 C 136.298 310.771,136.035 310.561,135.000 310.188 C 132.918 309.438,131.803 309.459,133.546 310.216 M137.800 311.095 C 138.460 311.192,139.206 311.441,139.458 311.649 C 139.709 311.857,140.879 312.107,142.058 312.204 C 144.058 312.368,144.094 312.356,142.600 312.023 C 141.720 311.827,140.493 311.472,139.874 311.233 C 139.255 310.995,138.265 310.827,137.674 310.860 C 136.640 310.918,136.644 310.926,137.800 311.095 M145.200 313.000 C 145.750 313.314,146.920 313.566,147.800 313.559 L 149.400 313.546 147.400 312.991 C 144.807 312.271,143.931 312.274,145.200 313.000 M151.287 314.133 C 151.885 314.466,153.410 314.869,154.675 315.027 C 155.940 315.185,157.560 315.558,158.275 315.857 C 158.990 316.156,160.165 316.375,160.887 316.346 C 161.950 316.301,162.010 316.260,161.200 316.126 C 160.650 316.035,159.390 315.715,158.400 315.414 C 157.410 315.113,155.610 314.678,154.400 314.449 C 153.190 314.219,151.750 313.918,151.200 313.779 C 150.221 313.531,150.223 313.539,151.287 314.133 M163.400 317.014 C 164.060 317.317,165.230 317.560,166.000 317.555 C 167.320 317.547,167.286 317.514,165.400 316.991 C 162.866 316.287,161.838 316.299,163.400 317.014 M169.146 318.216 C 169.886 318.537,170.966 318.788,171.546 318.773 C 172.368 318.752,172.204 318.622,170.800 318.179 C 168.462 317.443,167.418 317.466,169.146 318.216 M173.800 319.081 C 174.460 319.169,175.567 319.502,176.260 319.821 C 176.954 320.139,178.124 320.380,178.860 320.356 C 180.152 320.314,180.140 320.300,178.519 319.980 C 177.594 319.798,176.481 319.457,176.045 319.224 C 175.609 318.991,174.656 318.827,173.926 318.860 L 172.600 318.920 173.800 319.081 M181.546 320.984 C 182.286 321.323,183.456 321.582,184.146 321.559 L 185.400 321.518 184.000 321.132 C 183.230 320.919,182.060 320.660,181.400 320.556 L 180.200 320.367 181.546 320.984 M187.000 322.212 C 187.880 322.529,189.050 322.775,189.600 322.758 C 190.247 322.739,189.893 322.532,188.600 322.172 C 185.994 321.447,184.949 321.473,187.000 322.212 M192.200 323.074 C 192.640 323.173,193.567 323.512,194.260 323.827 C 194.954 324.142,196.124 324.380,196.860 324.356 C 198.152 324.314,198.140 324.300,196.519 323.980 C 195.594 323.798,194.481 323.457,194.045 323.224 C 193.609 322.991,192.836 322.821,192.326 322.846 C 191.518 322.887,191.502 322.916,192.200 323.074 M199.600 324.964 C 200.150 325.298,201.230 325.560,202.000 325.545 L 203.400 325.518 202.000 325.137 C 201.230 324.927,200.150 324.665,199.600 324.556 L 198.600 324.356 199.600 324.964 M204.800 326.200 C 205.570 326.497,206.740 326.741,207.400 326.743 C 208.448 326.746,208.371 326.674,206.800 326.179 C 204.460 325.442,202.874 325.458,204.800 326.200 M210.000 327.093 C 210.550 327.194,211.213 327.451,211.472 327.664 C 211.732 327.878,212.992 328.124,214.272 328.212 C 216.524 328.367,216.541 328.361,214.800 328.024 C 213.810 327.833,212.493 327.479,211.874 327.238 C 211.255 326.997,210.355 326.825,209.874 326.854 C 209.103 326.903,209.118 326.931,210.000 327.093 " stroke="none" fill="#9191c8" fill-rule="evenodd"></path><path id="path4" d="M220.600 69.600 C 220.000 69.858,220.281 69.951,221.724 69.972 C 222.910 69.989,223.553 69.847,223.400 69.600 C 223.105 69.122,221.712 69.122,220.600 69.600 M227.200 200.400 C 227.200 316.353,227.267 330.842,227.800 330.400 C 228.331 329.959,228.400 315.025,228.400 200.400 C 228.400 85.775,228.331 70.841,227.800 70.400 C 227.267 69.958,227.200 84.447,227.200 200.400 M214.400 70.915 C 213.448 71.349,213.484 71.378,215.142 71.511 C 216.724 71.637,217.598 71.438,217.167 71.050 C 216.651 70.585,215.270 70.518,214.400 70.915 M209.200 71.880 C 206.996 72.294,207.519 72.800,210.153 72.800 C 212.145 72.800,212.823 72.667,212.703 72.300 C 212.528 71.769,210.855 71.568,209.200 71.880 M203.200 73.339 C 201.813 73.756,201.810 73.761,202.905 73.907 C 204.741 74.151,205.840 73.884,205.166 73.359 C 204.762 73.044,204.200 73.038,203.200 73.339 M196.400 74.911 C 195.447 75.350,195.481 75.378,197.142 75.511 C 199.042 75.663,199.711 75.368,198.788 74.784 C 198.047 74.316,197.647 74.337,196.400 74.911 M190.880 75.995 C 188.575 76.540,188.975 76.800,192.121 76.800 C 194.671 76.800,195.137 76.701,194.945 76.200 C 194.695 75.549,193.100 75.469,190.880 75.995 M185.424 77.252 C 183.097 77.794,183.191 78.000,185.767 78.000 C 187.364 78.000,188.018 77.855,187.908 77.525 C 187.691 76.873,187.255 76.825,185.424 77.252 M178.500 78.812 C 177.137 79.360,177.410 79.600,179.400 79.600 C 180.733 79.600,181.200 79.444,181.200 79.000 C 181.200 78.329,179.924 78.240,178.500 78.812 M171.800 80.400 C 171.644 80.652,172.561 80.798,174.276 80.794 C 176.183 80.790,176.820 80.671,176.400 80.400 C 175.609 79.889,172.116 79.889,171.800 80.400 M167.280 81.187 C 165.090 81.718,165.328 82.000,167.967 82.000 C 169.788 82.000,170.422 81.864,170.302 81.500 C 170.098 80.881,169.010 80.768,167.280 81.187 M160.500 82.812 C 159.105 83.373,159.421 83.600,161.600 83.600 C 163.111 83.600,163.600 83.453,163.600 83.000 C 163.600 82.322,161.966 82.223,160.500 82.812 M154.000 84.400 C 153.567 84.680,153.934 84.789,155.324 84.794 C 156.506 84.798,157.152 84.646,157.000 84.400 C 156.686 83.891,154.787 83.891,154.000 84.400 M149.000 85.389 L 147.400 85.916 150.100 85.958 C 152.252 85.991,152.800 85.878,152.800 85.400 C 152.800 84.657,151.233 84.653,149.000 85.389 M142.500 86.803 C 141.078 87.390,141.430 87.600,143.833 87.600 C 145.441 87.600,146.021 87.460,145.903 87.100 C 145.699 86.479,143.706 86.305,142.500 86.803 M136.000 88.400 C 135.566 88.680,135.926 88.789,137.300 88.794 C 138.345 88.797,139.200 88.620,139.200 88.400 C 139.200 87.889,136.791 87.889,136.000 88.400 M130.000 89.600 C 129.580 89.871,130.217 89.990,132.124 89.994 C 133.839 89.998,134.756 89.852,134.600 89.600 C 134.284 89.089,130.791 89.089,130.000 89.600 M124.500 90.812 C 123.076 91.385,123.432 91.600,125.800 91.600 C 127.489 91.600,128.000 91.461,128.000 91.000 C 128.000 90.318,125.997 90.211,124.500 90.812 M118.900 92.049 C 117.106 92.565,117.273 92.800,119.433 92.800 C 120.671 92.800,121.215 92.646,121.108 92.325 C 120.891 91.672,120.418 91.613,118.900 92.049 M112.400 93.600 C 111.961 93.884,112.263 93.989,113.524 93.994 C 114.572 93.998,115.150 93.843,115.000 93.600 C 114.686 93.093,113.185 93.093,112.400 93.600 M106.100 94.812 C 104.628 95.404,105.051 95.600,107.800 95.600 C 109.844 95.600,110.400 95.472,110.400 95.000 C 110.400 94.313,107.641 94.193,106.100 94.812 M101.200 95.888 C 99.224 96.243,99.419 96.800,101.520 96.800 C 103.102 96.800,103.600 96.656,103.600 96.200 C 103.600 95.605,103.125 95.543,101.200 95.888 M94.600 97.600 C 94.453 97.839,94.937 98.000,95.800 98.000 C 96.663 98.000,97.147 97.839,97.000 97.600 C 96.864 97.380,96.324 97.200,95.800 97.200 C 95.276 97.200,94.736 97.380,94.600 97.600 M88.500 98.803 C 87.012 99.417,87.456 99.600,90.433 99.600 C 92.521 99.600,93.223 99.468,93.102 99.100 C 92.901 98.490,89.751 98.287,88.500 98.803 M82.900 100.048 C 81.001 100.596,81.297 100.800,83.987 100.800 C 85.945 100.800,86.333 100.692,86.145 100.200 C 85.888 99.532,84.852 99.484,82.900 100.048 M76.400 101.600 C 75.961 101.884,76.255 101.989,77.500 101.994 C 78.435 101.997,79.200 101.820,79.200 101.600 C 79.200 101.090,77.190 101.090,76.400 101.600 M70.900 102.665 C 69.809 103.105,70.496 103.600,72.200 103.600 C 74.102 103.600,74.616 103.058,73.100 102.652 C 72.072 102.377,71.608 102.379,70.900 102.665 M68.243 105.833 C 67.860 106.830,68.016 293.706,68.400 294.600 C 68.593 295.049,68.756 253.713,68.772 200.300 C 68.787 147.995,68.729 105.200,68.643 105.200 C 68.556 105.200,68.376 105.485,68.243 105.833 M246.000 125.600 C 245.569 125.879,245.963 125.988,247.400 125.988 C 248.837 125.988,249.231 125.879,248.800 125.600 C 248.470 125.387,247.840 125.212,247.400 125.212 C 246.960 125.212,246.330 125.387,246.000 125.600 M255.600 125.600 C 255.167 125.880,255.534 125.989,256.924 125.994 C 258.106 125.998,258.752 125.846,258.600 125.600 C 258.286 125.091,256.387 125.091,255.600 125.600 M242.900 126.665 C 241.972 127.039,242.392 127.600,243.600 127.600 C 244.400 127.600,244.800 127.400,244.800 127.000 C 244.800 126.415,243.908 126.258,242.900 126.665 M260.000 127.000 C 260.000 127.405,260.405 127.600,261.249 127.600 C 262.314 127.600,262.425 127.512,262.000 127.000 C 261.726 126.670,261.164 126.400,260.751 126.400 C 260.338 126.400,260.000 126.670,260.000 127.000 M263.200 128.213 C 263.200 128.536,263.470 128.800,263.800 128.800 C 264.130 128.800,264.400 128.639,264.400 128.443 C 264.400 128.246,264.130 127.982,263.800 127.855 C 263.435 127.715,263.200 127.855,263.200 128.213 M239.800 128.400 C 239.664 128.620,239.923 128.800,240.376 128.800 C 240.829 128.800,241.200 128.620,241.200 128.400 C 241.200 128.180,240.941 128.000,240.624 128.000 C 240.307 128.000,239.936 128.180,239.800 128.400 M267.200 131.000 C 267.200 131.330,267.464 131.600,267.787 131.600 C 268.145 131.600,268.285 131.365,268.145 131.000 C 268.018 130.670,267.754 130.400,267.557 130.400 C 267.361 130.400,267.200 130.670,267.200 131.000 M268.400 132.400 C 268.400 132.620,268.670 132.800,269.000 132.800 C 269.330 132.800,269.600 132.620,269.600 132.400 C 269.600 132.180,269.330 132.000,269.000 132.000 C 268.670 132.000,268.400 132.180,268.400 132.400 M272.806 138.300 C 272.803 139.015,272.980 139.600,273.200 139.600 C 273.708 139.600,273.708 138.386,273.200 137.600 C 272.906 137.145,272.811 137.314,272.806 138.300 M307.900 137.882 C 308.395 137.978,309.205 137.978,309.700 137.882 C 310.195 137.787,309.790 137.709,308.800 137.709 C 307.810 137.709,307.405 137.787,307.900 137.882 M301.200 139.000 C 300.775 139.512,300.892 139.600,302.000 139.600 C 303.108 139.600,303.225 139.512,302.800 139.000 C 302.526 138.670,302.166 138.400,302.000 138.400 C 301.834 138.400,301.474 138.670,301.200 139.000 M314.539 139.015 C 313.857 139.532,313.900 139.576,315.100 139.587 C 316.423 139.600,316.857 139.061,315.839 138.670 C 315.530 138.552,314.945 138.707,314.539 139.015 M298.176 140.187 C 297.433 140.750,297.446 140.775,298.500 140.787 C 299.217 140.796,299.600 140.591,299.600 140.200 C 299.600 139.443,299.166 139.439,298.176 140.187 M317.839 139.894 C 317.358 140.376,317.620 140.800,318.400 140.800 C 318.840 140.800,319.200 140.639,319.200 140.443 C 319.200 139.993,318.160 139.574,317.839 139.894 M274.000 141.400 C 274.000 142.263,274.161 142.747,274.400 142.600 C 274.620 142.464,274.800 141.924,274.800 141.400 C 274.800 140.876,274.620 140.336,274.400 140.200 C 274.161 140.053,274.000 140.537,274.000 141.400 M323.200 144.200 C 323.200 144.545,323.561 144.800,324.049 144.800 C 324.758 144.800,324.816 144.701,324.400 144.200 C 324.126 143.870,323.744 143.600,323.551 143.600 C 323.358 143.600,323.200 143.870,323.200 144.200 M275.212 148.400 C 275.212 150.483,275.331 151.217,275.600 150.800 C 275.813 150.470,275.988 149.390,275.988 148.400 C 275.988 147.410,275.813 146.330,275.600 146.000 C 275.331 145.583,275.212 146.317,275.212 148.400 M327.200 148.167 C 327.200 148.515,327.485 148.800,327.833 148.800 C 328.540 148.800,328.417 147.939,327.675 147.692 C 327.414 147.605,327.200 147.818,327.200 148.167 M180.661 148.749 C 179.990 149.011,179.981 149.086,180.561 149.568 C 181.110 150.024,181.200 151.317,181.200 158.791 L 181.200 167.484 178.500 167.739 C 177.015 167.880,174.270 168.011,172.400 168.032 C 170.530 168.053,168.100 168.210,167.000 168.382 C 165.667 168.589,167.866 168.711,173.600 168.747 L 182.200 168.800 182.109 158.703 C 182.058 153.149,181.878 148.573,181.709 148.533 C 181.539 148.492,181.068 148.589,180.661 148.749 M156.032 150.639 C 156.497 151.199,157.378 151.243,163.181 150.991 C 174.996 150.479,175.811 150.110,165.251 150.053 C 156.363 150.005,155.549 150.056,156.032 150.639 M139.094 151.654 C 139.651 152.211,149.541 152.216,151.600 151.660 C 152.631 151.381,151.110 151.271,145.820 151.241 C 140.466 151.210,138.755 151.315,139.094 151.654 M286.880 152.080 C 286.204 152.756,286.282 154.000,287.000 154.000 C 287.400 154.000,287.600 153.600,287.600 152.800 C 287.600 151.451,287.554 151.406,286.880 152.080 M330.000 152.976 C 330.000 153.539,330.180 154.000,330.400 154.000 C 330.620 154.000,330.800 153.651,330.800 153.224 C 330.800 152.797,330.620 152.336,330.400 152.200 C 330.173 152.060,330.000 152.396,330.000 152.976 M119.292 152.670 C 116.535 153.053,118.637 153.598,122.724 153.560 C 127.510 153.515,130.742 152.908,126.556 152.840 C 125.212 152.818,123.322 152.730,122.356 152.644 C 121.390 152.559,120.012 152.571,119.292 152.670 M106.000 162.800 L 106.000 171.600 114.700 171.588 C 125.710 171.572,125.429 170.841,114.266 170.461 L 106.600 170.200 106.491 162.752 L 106.383 155.304 107.491 154.868 C 108.101 154.629,109.140 154.362,109.800 154.276 C 110.460 154.190,109.875 154.093,108.500 154.060 L 106.000 154.000 106.000 162.800 M274.000 155.200 C 274.000 155.930,274.166 156.345,274.400 156.200 C 274.620 156.064,274.800 155.614,274.800 155.200 C 274.800 154.786,274.620 154.336,274.400 154.200 C 274.166 154.055,274.000 154.470,274.000 155.200 M285.443 155.833 C 285.046 156.868,285.179 166.549,285.600 167.200 C 285.859 167.601,285.990 165.715,285.994 161.500 C 286.000 155.310,285.928 154.569,285.443 155.833 M331.200 161.400 C 331.200 166.168,331.300 167.260,331.700 166.860 C 332.046 166.514,332.200 164.835,332.200 161.400 C 332.200 157.965,332.046 156.286,331.700 155.940 C 331.300 155.540,331.200 156.632,331.200 161.400 M272.600 158.000 C 272.274 158.528,272.752 159.277,273.228 158.983 C 273.713 158.683,273.710 157.600,273.224 157.600 C 273.017 157.600,272.736 157.780,272.600 158.000 M271.200 161.000 C 271.200 161.330,271.380 161.600,271.600 161.600 C 271.820 161.600,272.000 161.330,272.000 161.000 C 272.000 160.670,271.820 160.400,271.600 160.400 C 271.380 160.400,271.200 160.670,271.200 161.000 M234.400 163.444 C 234.400 163.798,236.146 165.585,236.500 165.593 C 236.665 165.597,236.800 165.330,236.800 165.000 C 236.800 164.670,236.530 164.400,236.200 164.400 C 235.870 164.400,235.600 164.130,235.600 163.800 C 235.600 163.470,235.330 163.200,235.000 163.200 C 234.670 163.200,234.400 163.310,234.400 163.444 M268.800 163.800 C 268.800 164.130,268.961 164.400,269.157 164.400 C 269.354 164.400,269.618 164.130,269.745 163.800 C 269.885 163.435,269.745 163.200,269.387 163.200 C 269.064 163.200,268.800 163.470,268.800 163.800 M264.400 167.833 C 264.400 168.540,265.261 168.417,265.508 167.675 C 265.595 167.414,265.382 167.200,265.033 167.200 C 264.685 167.200,264.400 167.485,264.400 167.833 M241.375 168.840 C 241.051 169.365,242.376 169.784,242.853 169.307 C 243.119 169.041,242.977 168.835,242.427 168.691 C 241.973 168.572,241.499 168.639,241.375 168.840 M261.875 168.658 C 261.353 169.180,261.602 169.600,262.433 169.600 C 262.899 169.600,263.197 169.390,263.108 169.125 C 262.913 168.540,262.246 168.288,261.875 168.658 M286.667 168.667 C 286.200 169.134,286.379 170.285,287.000 170.800 C 287.515 171.227,287.600 171.092,287.600 169.849 C 287.600 168.482,287.270 168.064,286.667 168.667 M330.000 169.624 C 330.000 170.337,330.167 170.744,330.400 170.600 C 330.620 170.464,330.800 169.913,330.800 169.376 C 330.800 168.839,330.620 168.400,330.400 168.400 C 330.180 168.400,330.000 168.951,330.000 169.624 M244.000 170.400 C 244.000 170.620,244.259 170.800,244.576 170.800 C 244.893 170.800,245.264 170.620,245.400 170.400 C 245.536 170.180,245.277 170.000,244.824 170.000 C 244.371 170.000,244.000 170.180,244.000 170.400 M259.120 170.480 C 259.493 170.853,259.707 170.853,260.080 170.480 C 260.453 170.107,260.347 170.000,259.600 170.000 C 258.853 170.000,258.747 170.107,259.120 170.480 M248.400 171.600 C 248.730 171.813,250.530 171.988,252.400 171.988 C 254.270 171.988,256.070 171.813,256.400 171.600 C 256.806 171.337,255.516 171.212,252.400 171.212 C 249.284 171.212,247.994 171.337,248.400 171.600 M132.892 211.867 C 132.842 233.684,132.691 251.819,132.557 252.167 C 132.409 252.553,132.527 252.800,132.857 252.800 C 133.376 252.800,133.495 216.319,133.091 181.400 C 133.032 176.340,132.943 190.050,132.892 211.867 M327.200 174.649 C 327.200 175.180,327.309 175.208,327.800 174.800 C 328.130 174.526,328.400 174.234,328.400 174.151 C 328.400 174.068,328.130 174.000,327.800 174.000 C 327.470 174.000,327.200 174.292,327.200 174.649 M323.200 178.633 C 323.200 179.340,324.061 179.217,324.308 178.475 C 324.395 178.214,324.182 178.000,323.833 178.000 C 323.485 178.000,323.200 178.285,323.200 178.633 M295.817 180.772 C 295.521 181.251,296.274 181.725,296.807 181.396 C 297.254 181.119,296.960 180.400,296.400 180.400 C 296.206 180.400,295.944 180.568,295.817 180.772 M320.588 180.820 C 320.207 181.435,320.728 181.832,321.242 181.318 C 321.529 181.031,321.536 180.807,321.262 180.639 C 321.039 180.500,320.735 180.582,320.588 180.820 M235.300 181.207 C 234.805 181.409,234.400 181.670,234.400 181.787 C 234.400 181.904,244.426 182.000,256.680 182.000 C 274.504 182.000,278.860 181.900,278.460 181.500 C 277.849 180.888,236.765 180.609,235.300 181.207 M298.559 182.600 C 299.323 183.178,300.000 183.073,300.000 182.376 C 300.000 182.169,299.505 182.006,298.900 182.013 C 297.858 182.025,297.840 182.056,298.559 182.600 M317.600 182.400 C 317.600 182.620,317.859 182.800,318.176 182.800 C 318.493 182.800,318.864 182.620,319.000 182.400 C 319.136 182.180,318.877 182.000,318.424 182.000 C 317.971 182.000,317.600 182.180,317.600 182.400 M279.224 223.800 C 279.224 252.329,279.350 264.384,279.642 263.883 C 280.183 262.952,280.141 184.567,279.598 183.639 C 279.365 183.240,279.224 198.324,279.224 223.800 M301.000 183.600 C 301.136 183.820,301.777 184.000,302.424 184.000 C 303.071 184.000,303.600 183.820,303.600 183.600 C 303.600 183.380,302.959 183.200,302.176 183.200 C 301.329 183.200,300.853 183.362,301.000 183.600 M313.800 183.600 C 313.936 183.820,314.476 184.000,315.000 184.000 C 315.524 184.000,316.064 183.820,316.200 183.600 C 316.347 183.361,315.863 183.200,315.000 183.200 C 314.137 183.200,313.653 183.361,313.800 183.600 M285.467 195.867 C 285.017 196.316,285.149 261.121,285.600 261.400 C 285.865 261.564,286.000 250.537,286.000 228.624 C 286.000 210.461,285.940 195.600,285.867 195.600 C 285.793 195.600,285.613 195.720,285.467 195.867 M331.212 220.300 C 331.222 239.906,331.325 244.835,331.712 244.200 C 332.220 243.368,332.688 198.419,332.209 196.500 C 331.376 193.162,331.201 197.352,331.212 220.300 M330.000 246.600 C 330.000 247.196,330.172 247.541,330.400 247.400 C 330.620 247.264,330.800 246.904,330.800 246.600 C 330.800 246.296,330.620 245.936,330.400 245.800 C 330.172 245.659,330.000 246.004,330.000 246.600 M136.900 253.048 C 135.288 253.754,137.180 254.000,144.233 254.000 C 150.075 254.000,152.027 253.880,151.909 253.528 C 151.746 253.038,137.930 252.596,136.900 253.048 M322.000 255.814 C 322.000 256.304,322.161 256.342,322.800 256.000 C 323.240 255.765,323.600 255.488,323.600 255.386 C 323.600 255.284,323.240 255.200,322.800 255.200 C 322.347 255.200,322.000 255.467,322.000 255.814 M318.000 258.400 C 318.000 258.620,318.259 258.800,318.576 258.800 C 318.893 258.800,319.264 258.620,319.400 258.400 C 319.536 258.180,319.277 258.000,318.824 258.000 C 318.371 258.000,318.000 258.180,318.000 258.400 M313.698 259.700 C 313.941 260.443,315.686 260.521,316.600 259.830 C 317.350 259.263,317.278 259.225,315.467 259.213 C 314.095 259.204,313.581 259.345,313.698 259.700 M310.200 261.200 C 310.512 261.706,311.618 261.706,312.400 261.200 C 312.845 260.912,312.607 260.811,311.476 260.806 C 310.561 260.802,310.052 260.960,310.200 261.200 M286.745 262.500 C 287.372 263.122,303.661 263.085,305.200 262.458 C 305.920 262.165,303.402 262.044,296.220 262.025 C 288.234 262.005,286.341 262.100,286.745 262.500 M278.013 266.667 C 278.025 268.115,278.059 268.156,278.624 267.408 C 279.302 266.512,279.245 265.548,278.500 265.300 C 278.157 265.186,278.004 265.614,278.013 266.667 M276.800 269.624 C 276.800 270.077,276.980 270.336,277.200 270.200 C 277.420 270.064,277.600 269.693,277.600 269.376 C 277.600 269.059,277.420 268.800,277.200 268.800 C 276.980 268.800,276.800 269.171,276.800 269.624 M274.000 273.000 C 274.000 273.367,274.194 273.602,274.430 273.523 C 274.666 273.445,274.860 273.209,274.860 273.000 C 274.860 272.791,274.666 272.555,274.430 272.477 C 274.194 272.398,274.000 272.633,274.000 273.000 M266.800 278.333 C 266.800 278.897,267.251 279.155,267.839 278.930 C 268.674 278.609,268.517 278.000,267.600 278.000 C 267.160 278.000,266.800 278.150,266.800 278.333 M264.400 279.600 C 264.400 279.820,264.659 280.000,264.976 280.000 C 265.293 280.000,265.664 279.820,265.800 279.600 C 265.936 279.380,265.677 279.200,265.224 279.200 C 264.771 279.200,264.400 279.380,264.400 279.600 M238.000 280.782 L 237.000 281.085 238.099 281.386 C 239.511 281.772,240.867 281.340,239.989 280.785 C 239.328 280.367,239.372 280.367,238.000 280.782 M259.694 280.685 C 258.487 280.915,258.962 281.602,260.324 281.594 C 261.351 281.588,263.117 280.819,262.133 280.806 C 261.876 280.803,261.426 280.735,261.133 280.656 C 260.840 280.577,260.192 280.590,259.694 280.685 M243.000 282.400 C 243.440 282.589,246.320 282.744,249.400 282.744 C 252.480 282.744,255.360 282.589,255.800 282.400 C 256.285 282.191,253.769 282.056,249.400 282.056 C 245.031 282.056,242.515 282.191,243.000 282.400 M73.600 298.400 C 74.391 298.911,76.800 298.911,76.800 298.400 C 76.800 298.180,75.945 298.003,74.900 298.006 C 73.526 298.011,73.166 298.120,73.600 298.400 M79.800 299.814 C 81.465 300.577,83.600 300.569,83.600 299.800 C 83.600 299.327,83.070 299.207,81.100 299.232 C 78.655 299.264,78.626 299.277,79.800 299.814 M86.200 300.760 C 85.163 301.005,85.109 301.079,85.800 301.300 C 87.580 301.869,90.200 301.805,90.200 301.192 C 90.200 300.519,88.154 300.298,86.200 300.760 M91.800 302.400 C 91.936 302.620,92.577 302.800,93.224 302.800 C 93.871 302.800,94.400 302.620,94.400 302.400 C 94.400 302.180,93.759 302.000,92.976 302.000 C 92.129 302.000,91.653 302.162,91.800 302.400 M97.949 303.854 C 99.468 304.516,100.855 304.449,101.102 303.700 C 101.222 303.336,100.632 303.209,98.933 303.233 L 96.600 303.265 97.949 303.854 M104.000 304.754 C 102.667 305.007,102.648 305.034,103.600 305.305 C 105.318 305.793,108.087 305.662,107.903 305.100 C 107.713 304.522,106.014 304.371,104.000 304.754 M109.600 306.400 C 110.387 306.909,112.286 306.909,112.600 306.400 C 112.752 306.154,112.106 306.002,110.924 306.006 C 109.534 306.011,109.167 306.120,109.600 306.400 M115.856 307.616 C 116.463 308.223,118.483 308.283,118.690 307.700 C 118.813 307.350,118.352 307.200,117.153 307.200 C 115.967 307.200,115.568 307.328,115.856 307.616 M122.200 308.758 C 121.204 308.977,121.125 309.071,121.733 309.311 C 122.770 309.720,125.600 309.670,125.600 309.243 C 125.600 308.473,124.325 308.291,122.200 308.758 M127.600 310.400 C 128.393 310.912,132.000 310.912,132.000 310.400 C 132.000 310.175,130.904 310.003,129.500 310.006 C 127.738 310.010,127.177 310.127,127.600 310.400 M133.420 311.572 C 134.193 312.328,135.844 312.469,136.379 311.826 C 136.838 311.273,136.674 311.200,134.969 311.200 C 133.775 311.200,133.185 311.342,133.420 311.572 M140.400 312.758 C 139.171 313.101,140.125 313.600,142.009 313.600 C 143.440 313.600,143.894 312.972,142.696 312.651 C 141.690 312.382,141.765 312.378,140.400 312.758 M145.231 314.394 C 146.260 314.995,150.088 315.076,150.291 314.500 C 150.421 314.129,149.711 314.003,147.533 314.012 C 145.547 314.020,144.804 314.143,145.231 314.394 M151.200 315.600 C 151.991 316.111,154.400 316.111,154.400 315.600 C 154.400 315.380,153.545 315.203,152.500 315.206 C 151.126 315.211,150.766 315.320,151.200 315.600 M158.400 316.791 C 157.526 317.006,157.492 317.072,158.133 317.318 C 159.161 317.713,160.800 317.669,160.800 317.247 C 160.800 316.739,159.566 316.505,158.400 316.791 M163.600 318.367 C 164.922 319.122,167.483 319.283,167.735 318.626 C 167.937 318.099,167.583 318.002,165.487 318.012 C 163.900 318.020,163.217 318.148,163.600 318.367 M169.400 319.600 C 169.536 319.820,170.436 320.000,171.400 320.000 C 172.364 320.000,173.264 319.820,173.400 319.600 C 173.554 319.351,172.796 319.200,171.400 319.200 C 170.004 319.200,169.246 319.351,169.400 319.600 M176.000 321.200 C 176.788 321.709,178.400 321.709,178.400 321.200 C 178.400 320.980,177.725 320.803,176.900 320.806 C 175.784 320.811,175.554 320.912,176.000 321.200 M181.200 322.358 C 182.425 323.039,184.734 323.161,185.224 322.571 C 185.626 322.086,185.312 322.002,183.149 322.012 C 181.569 322.020,180.828 322.151,181.200 322.358 M186.968 323.670 C 188.062 324.305,192.074 324.327,192.293 323.700 C 192.422 323.327,191.670 323.203,189.333 323.212 C 186.833 323.222,186.355 323.314,186.968 323.670 M194.400 324.810 L 193.400 325.085 194.529 325.393 C 195.183 325.572,195.826 325.534,196.056 325.304 C 196.610 324.750,195.654 324.464,194.400 324.810 M199.600 326.400 C 200.392 326.912,203.200 326.912,203.200 326.400 C 203.200 326.180,202.255 326.003,201.100 326.006 C 199.597 326.011,199.170 326.122,199.600 326.400 M205.063 327.623 C 205.855 328.415,210.000 328.611,210.000 327.856 C 210.000 327.313,209.537 327.200,207.320 327.200 C 205.436 327.200,204.766 327.326,205.063 327.623 M211.800 329.200 C 211.936 329.420,212.566 329.600,213.200 329.600 C 213.834 329.600,214.464 329.420,214.600 329.200 C 214.750 328.958,214.196 328.800,213.200 328.800 C 212.204 328.800,211.650 328.958,211.800 329.200 M217.600 330.400 C 218.391 330.911,220.800 330.911,220.800 330.400 C 220.800 330.180,219.945 330.003,218.900 330.006 C 217.526 330.011,217.166 330.120,217.600 330.400 M223.200 331.600 C 223.988 332.110,226.285 332.110,226.600 331.600 C 226.753 331.352,226.039 331.202,224.724 331.206 C 223.205 331.211,222.771 331.323,223.200 331.600 " stroke="none" fill="#4d4dac" fill-rule="evenodd"></path></g></svg>